<svg width="837" height="804" viewBox="0 0 837 804" fill="none" xmlns="http://www.w3.org/2000/svg">
<path d="M418.577 292.535C389.051 292.535 361.402 302.959 340.468 322.009C319.633 341.059 308.079 366.219 308.079 393.087C308.079 419.955 319.633 445.115 340.468 464.165C361.402 483.125 389.051 493.639 418.577 493.639C448.102 493.639 475.751 483.125 496.685 464.165C517.52 445.115 529.074 419.955 529.074 393.087C529.074 366.219 517.52 341.059 496.685 322.009C486.46 312.633 474.29 305.199 460.881 300.139C447.472 295.079 433.092 292.495 418.577 292.535ZM825.707 504.152L761.127 453.921C764.188 436.848 765.768 419.416 765.768 402.073C765.768 384.73 764.188 367.208 761.127 350.224L825.707 299.993C830.586 296.193 834.077 291.131 835.718 285.481C837.358 279.831 837.07 273.86 834.891 268.363L834.002 266.027C816.229 220.8 789.598 178.878 755.4 142.291L753.622 140.404C749.47 135.961 743.935 132.767 737.748 131.243C731.561 129.719 725.011 129.937 718.963 131.868L638.781 157.837C609.157 135.732 576.176 118.299 540.429 106.168L524.926 29.878C523.757 24.1309 520.693 18.8436 516.142 14.7187C511.592 10.5937 505.77 7.8264 499.45 6.78433L496.784 6.33504C445.435 -2.11168 391.323 -2.11168 339.975 6.33504L337.308 6.78433C330.988 7.8264 325.166 10.5937 320.616 14.7187C316.065 18.8436 313.001 24.1309 311.832 29.878L296.23 106.528C260.822 118.755 227.838 136.145 198.57 158.017L117.795 131.868C111.749 129.922 105.195 129.696 99.0036 131.221C92.8126 132.745 87.2781 135.949 83.1355 140.404L81.3581 142.291C47.2208 178.917 20.5967 220.828 2.75612 266.027L1.8674 268.363C-2.57618 279.595 1.07743 292.176 11.0508 299.993L76.4208 350.764C73.3597 367.657 71.8785 384.91 71.8785 401.983C71.8785 419.236 73.3597 436.489 76.4208 453.202L11.2483 503.973C6.3698 507.773 2.87821 512.835 1.23779 518.485C-0.40263 524.135 -0.114147 530.106 2.06489 535.603L2.95361 537.939C20.8267 583.138 47.1919 624.922 81.5556 661.675L83.333 663.562C87.4857 668.005 93.0204 671.199 99.2077 672.723C105.395 674.247 111.944 674.029 117.993 672.098L198.767 645.949C228.194 667.965 260.978 685.397 296.427 697.438L312.029 774.088C313.199 779.835 316.263 785.122 320.813 789.247C325.364 793.372 331.186 796.14 337.506 797.182L340.172 797.631C392.025 806.123 445.128 806.123 496.981 797.631L499.647 797.182C505.967 796.14 511.789 793.372 516.34 789.247C520.89 785.122 523.954 779.835 525.124 774.088L540.627 697.798C576.373 685.577 609.354 668.234 638.978 646.129L719.16 672.098C725.207 674.044 731.761 674.27 737.952 672.745C744.143 671.22 749.677 668.017 753.82 663.562L755.597 661.675C789.961 624.743 816.326 583.138 834.199 537.939L835.088 535.603C839.334 524.46 835.681 511.97 825.707 504.152ZM418.577 551.059C322.694 551.059 244.981 480.34 244.981 393.087C244.981 305.834 322.694 235.115 418.577 235.115C514.459 235.115 592.172 305.834 592.172 393.087C592.172 480.34 514.459 551.059 418.577 551.059Z" fill="white"/>
</svg>
