<svg width="500" height="481" viewBox="0 0 500 481" fill="none" xmlns="http://www.w3.org/2000/svg">
<path d="M250.096 174.787C232.455 174.787 215.935 181.015 203.427 192.398C190.978 203.78 184.075 218.813 184.075 234.866C184.075 250.919 190.978 265.953 203.427 277.335C215.935 288.663 232.455 294.945 250.096 294.945C267.737 294.945 284.257 288.663 296.765 277.335C309.214 265.953 316.117 250.919 316.117 234.866C316.117 218.813 309.214 203.78 296.765 192.398C290.656 186.795 283.384 182.354 275.373 179.331C267.361 176.307 258.769 174.763 250.096 174.787ZM493.353 301.227L454.767 271.214C456.596 261.013 457.54 250.597 457.54 240.235C457.54 229.873 456.596 219.403 454.767 209.256L493.353 179.244C496.268 176.973 498.354 173.948 499.334 170.573C500.315 167.197 500.142 163.629 498.84 160.345L498.309 158.949C487.69 131.926 471.778 106.878 451.345 85.0178L450.283 83.8904C447.802 81.2355 444.495 79.3271 440.798 78.4166C437.101 77.506 433.188 77.6362 429.574 78.7898L381.666 94.3062C363.966 81.0985 344.26 70.6827 322.902 63.4345L313.639 17.8519C312.94 14.418 311.11 11.2589 308.391 8.79428C305.672 6.32966 302.193 4.67621 298.417 4.05358L296.824 3.78513C266.144 -1.26171 233.812 -1.26171 203.132 3.78513L201.539 4.05358C197.763 4.67621 194.284 6.32966 191.565 8.79428C188.846 11.2589 187.016 14.418 186.317 17.8519L176.995 63.6493C155.839 70.9552 136.131 81.3458 118.644 94.4136L70.3818 78.7898C66.769 77.627 62.8529 77.4922 59.1538 78.4032C55.4548 79.3143 52.148 81.2281 49.6728 83.8904L48.6108 85.0178C28.214 106.901 12.3064 131.943 1.64676 158.949L1.11575 160.345C-1.53925 167.056 0.643756 174.572 6.60276 179.244L45.6608 209.578C43.8318 219.672 42.9468 229.98 42.9468 240.181C42.9468 250.49 43.8318 260.798 45.6608 270.785L6.72076 301.119C3.8059 303.39 1.7197 306.415 0.739568 309.79C-0.240568 313.166 -0.0682017 316.734 1.23375 320.018L1.76475 321.414C12.4438 348.42 28.1968 373.386 48.7288 395.345L49.7908 396.473C52.272 399.127 55.5789 401.036 59.2758 401.946C62.9726 402.857 66.8859 402.727 70.4998 401.573L118.762 385.949C136.344 399.103 155.932 409.519 177.113 416.714L186.435 462.511C187.134 465.945 188.964 469.104 191.683 471.569C194.402 474.033 197.881 475.687 201.657 476.309L203.25 476.578C234.232 481.652 265.96 481.652 296.942 476.578L298.535 476.309C302.311 475.687 305.79 474.033 308.509 471.569C311.228 469.104 313.058 465.945 313.757 462.511L323.02 416.928C344.378 409.627 364.084 399.264 381.784 386.057L429.692 401.573C433.305 402.736 437.221 402.871 440.92 401.96C444.619 401.049 447.926 399.135 450.401 396.473L451.463 395.345C471.995 373.279 487.748 348.42 498.427 321.414L498.958 320.018C501.495 313.361 499.312 305.898 493.353 301.227ZM250.096 329.253C192.807 329.253 146.374 286.999 146.374 234.866C146.374 182.733 192.807 140.479 250.096 140.479C307.385 140.479 353.818 182.733 353.818 234.866C353.818 286.999 307.385 329.253 250.096 329.253Z" fill="white"/>
</svg>
