<svg xmlns="http://www.w3.org/2000/svg" height="48" viewBox="0 96 960 960" width="48"><path d="m408 632-45-45.283q9-10.717 14-23.28 5-12.562 5-24.905 0-12.343-5-24.437Q372 502 363 490l45-45q19 22 29 45.5t10 48.5q0 25-10 48.5T408 632Zm89 89-44-44q29-30 42.5-65.558 13.5-35.558 13.5-72.5T495.5 466Q482 430 453 400l45-45q38 42 56 88.317 18 46.316 18 95.235 0 48.616-18.201 94.764Q535.597 679.465 497 721ZM190 570q-33 0-56-23.292t-23-56Q111 458 134.292 434.5t56-23.5Q223 411 246.5 434.5T270 491q0 33-23.5 56T190 570ZM34 737v-19q0-22.956 12.408-42.086T81 647q25.078-10.522 52.103-16.761Q160.128 624 190.064 624t56.917 6.239Q273.963 636.478 300 647q21.184 9.784 34.092 28.914Q347 695.044 347 718v19H34Zm736-167q-33 0-56-23.292t-23-56Q691 458 714.292 434.5t56-23.5Q803 411 826.5 434.5T850 491q0 33-23.5 56T770 570ZM614 737v-19q0-22.956 12.408-42.086T661 647q25.078-10.522 52.103-16.761Q740.128 624 770.064 624t56.917 6.239Q853.963 636.478 880 647q21.184 9.784 34.092 28.914Q927 695.044 927 718v19H614Z"/></svg>