<?xml version="1.0" standalone="no"?>
<!DOCTYPE svg PUBLIC "-//W3C//DTD SVG 1.0//EN" "http://www.w3.org/TR/2001/REC-SVG-20010904/DTD/svg10.dtd">
<svg xmlns="http://www.w3.org/2000/svg" xmlns:xlink="http://www.w3.org/1999/xlink" id="body_1" width="50" height="50">

<g transform="matrix(0.052083336 0 0 0.052083336 -0 -5)">
    <path d="M408 632L363 586.717C 369 579.5723 373.6667 571.8123 377 563.43695C 380.33334 555.06226 382 546.7606 382 538.5319C 382 530.3032 380.33334 522.1576 377 514.0949C 373.6667 506.03168 369 498.00003 363 490L363 490L408 445C 420.6667 459.6667 430.33337 474.83334 437 490.5C 441.44446 500.94446 444.77777 517.11115 447 539C 447 555.6667 443.6667 571.8334 437 587.5C 432.55554 597.94446 422.8889 612.7778 408 632zM497 721L453 677C 472.33334 657 486.5 635.14734 495.5 611.442C 504.5 587.7367 509 563.57007 509 538.942C 509 522.5233 504.5 498.20932 495.5 466C 486.5 442.00003 472.33334 420.00003 453 400L453 400L498 355C 523.3334 383.00003 542 412.43903 554 443.31702C 566 474.19437 572 505.93936 572 538.552C 572 570.9627 565.933 602.5507 553.799 633.316C 541.6643 664.08203 522.7313 693.31006 497 721zM190 570C 168 570 149.33334 562.236 134 546.708C 123.77777 536.356 116.11111 517.68933 111 490.708C 111 468.90268 118.76401 450.1667 134.292 434.5C 144.64401 424.05557 163.31067 416.22223 190.292 411C 212.09735 411 230.83334 418.83334 246.5 434.5C 256.94446 444.94446 264.77777 463.77777 270 491C 270 513 262.1667 531.6667 246.5 547C 236.05556 557.2222 217.22223 564.8889 190 570zM34 737L34 718C 34 702.69604 38.136 688.66736 46.408 675.914C 51.92267 667.4118 63.453335 657.7738 81 647C 97.71867 639.98535 115.08634 634.3984 133.103 630.239C 151.11967 626.0797 170.10667 624 190.064 624C 203.3689 624 222.34122 626.0797 246.98099 630.239C 264.969 634.3984 282.64203 639.98535 300 647C 314.12268 653.5227 325.48666 663.1607 334.092 675.914C 342.69736 688.66736 347 702.69604 347 718L347 718L347 737L34 737zM770 570C 748 570 729.3334 562.236 714 546.708C 703.7778 536.356 696.1111 517.68933 691 490.708C 691 468.90268 698.76404 450.1667 714.292 434.5C 724.644 424.05557 743.31067 416.22223 770.292 411C 792.0974 411 810.8334 418.83334 826.5 434.5C 836.94446 444.94446 844.77783 463.77777 850 491C 850 513 842.1667 531.6667 826.5 547C 816.05554 557.2222 797.2222 564.8889 770 570zM614 737L614 718C 614 702.69604 618.136 688.66736 626.408 675.914C 631.9227 667.4118 643.45337 657.7738 661 647C 677.7187 639.98535 695.08636 634.3984 713.103 630.239C 731.1197 626.0797 750.1067 624 770.064 624C 783.3689 624 802.34125 626.0797 826.981 630.239C 844.96906 634.3984 862.6421 639.98535 880 647C 894.1227 653.5227 905.4867 663.1607 914.092 675.914C 922.6973 688.66736 927 702.69604 927 718L927 718L927 737L614 737z" stroke="none" fill="#000000" fill-rule="nonzero" />
</g>
</svg>