<?xml version="1.0" encoding="utf-8"?>
<!-- Generator: Adobe Illustrator 25.4.1, SVG Export Plug-In . SVG Version: 6.00 Build 0)  -->
<svg version="1.1" id="Layer_1" xmlns="http://www.w3.org/2000/svg" xmlns:xlink="http://www.w3.org/1999/xlink" x="0px" y="0px"
	 viewBox="0 0 48 48" style="enable-background:new 0 0 48 48;" xml:space="preserve">
<style type="text/css">
	.st0{fill:#F9F9F9;}
</style>
<path class="st0" d="M24,2l18.5,11.1c0.6,0.3,1,0.7,1.2,1.2s0.3,1,0.3,1.5V39c0,0.8-0.3,1.5-0.9,2.1C42.5,41.7,41.8,42,41,42H7
	c-0.8,0-1.5-0.3-2.1-0.9C4.3,40.5,4,39.8,4,39V15.9c0-0.5,0.1-1,0.3-1.5c0.2-0.5,0.6-0.9,1.1-1.2L24,2z M24,25.3l16.8-9.9L24,5.3
	L7.2,15.4L24,25.3z"/>
</svg>
