<svg width="3496" height="256" viewBox="0 0 3496 256" fill="none" xmlns="http://www.w3.org/2000/svg">
<path fill-rule="evenodd" clip-rule="evenodd" d="M724.707 197.363C727.784 179.747 730.622 162.967 733.665 146.221C738.023 122.194 742.079 98.1 747.33 74.2637C748.409 69.3761 753.359 63.0789 757.889 61.5883C782.432 53.4804 807.305 47.4462 831.657 63.1793C833.616 64.4454 837.782 62.3193 840.916 61.7364C854.662 59.1612 868.379 54.5793 882.153 54.4025C912.975 54.0108 931.718 76.8962 926.873 107.321C922.912 132.184 918.182 156.924 913.71 181.706C910.356 200.291 910.299 200.282 889.181 197.215C889.439 193.402 889.353 189.389 890.027 185.519C894.427 160.34 899.191 135.228 903.452 110.025C907.81 84.2444 896.725 72.4195 870.524 74.6698C865.637 75.0903 860.844 76.6382 856.009 77.6654C847.701 79.4236 845.747 83.6185 845.536 92.7631C845.135 110.517 841.561 128.224 838.9 145.887C836.679 160.598 833.673 175.189 831.399 189.89C829.412 202.728 819.603 198.385 812.575 198.161C803.812 197.879 808.103 190.855 808.786 186.837C812.795 163.149 817.09 139.499 821.595 115.897C828.317 80.6659 814.128 67.5652 779.226 76.6955C772.25 78.5254 768.486 81.3205 767.162 89.2755C762.026 120.125 756.02 150.841 750.11 181.558C746.584 199.885 746.393 199.847 724.707 197.363Z" fill="#ECECEC"/>
<path fill-rule="evenodd" clip-rule="evenodd" d="M2828.8 190.249C2815.89 191.496 2803.5 193.813 2791.15 193.65C2763.82 193.297 2746.39 175.615 2747.95 148.467C2748.97 130.723 2752.03 112.773 2756.81 95.6443C2763.66 71.0245 2782.45 58.4066 2806.94 54.7994C2826.5 51.9232 2845.64 54.3693 2863.92 62.7542C2870.9 65.9553 2873.69 70.0213 2872.3 77.8234C2865.09 118.339 2858.9 159.05 2851.04 199.441C2841.21 249.923 2785.13 271.557 2744.84 241.098C2739.53 237.08 2734.33 233.607 2740.7 225.599C2746.16 218.743 2749.83 218.079 2757.37 223.234C2787.59 243.903 2822.85 230.2 2828.75 196.101C2829.12 193.99 2828.8 191.763 2828.8 190.249ZM2821.05 74.2974C2800.78 73.9581 2784.85 82.0708 2779.9 98.8264C2775.08 115.138 2772.45 132.319 2770.94 149.299C2769.78 162.285 2776.3 170.732 2789.06 171.348C2802.32 171.993 2815.9 168.792 2829.1 166.112C2831.79 165.567 2834.64 160.087 2835.35 156.47C2838.94 138.138 2842.02 119.696 2844.94 101.23C2848.68 77.6131 2845.99 74.713 2821.05 74.2974Z" fill="#ECECEC"/>
<path fill-rule="evenodd" clip-rule="evenodd" d="M127.557 146.14C103.467 146.14 80.6007 145.882 57.7535 146.432C54.6241 146.513 50.4674 149.91 48.7235 152.901C43.3581 162.103 38.9196 171.849 34.1419 181.395C24.3284 201.003 24.3331 201.008 0 197.023C3.78398 189.226 7.23352 181.792 10.9602 174.506C38.5517 120.555 66.2054 66.6337 93.8351 12.6976C99.0094 2.59263 114.537 -3.3031 124.394 1.97154C127.021 3.3762 128.813 7.97715 129.372 11.3789C139.061 70.0545 148.507 128.773 157.972 187.492C158.717 192.107 161.469 198.753 153.127 198.17C146.438 197.702 136.118 203.975 134.274 190.445C132.31 176.102 129.955 161.826 127.557 146.14ZM110.82 32.1813C109.874 31.8994 108.933 31.6175 107.987 31.3404C92.9226 62.1617 77.8631 92.9782 62.5552 124.296C84.0742 124.296 103.696 124.296 124.26 124.296C119.688 92.9687 115.254 62.5774 110.82 32.1813Z" fill="#ECECEC"/>
<path fill-rule="evenodd" clip-rule="evenodd" d="M551.081 61.3401C553.995 44.4603 556.671 28.3927 559.566 12.3681C561.363 2.41127 571.984 -3.06881 580.555 1.99084C582.471 3.11839 583.508 7.85309 583.035 10.5907C574.091 62.0854 564.96 113.552 555.644 164.979C550.316 194.367 550.168 194.611 520.264 198.877C509.744 200.378 498.946 201.018 488.335 200.564C460.853 199.389 442.936 181.233 444.58 153.751C445.736 134.497 448.894 114.851 454.671 96.4854C465.731 61.302 502.329 45.3585 539.423 57.3889C542.968 58.5404 546.489 59.7826 551.081 61.3401ZM500.016 181.052C506.395 180.106 512.749 178.978 519.151 178.247C527.34 177.32 531.459 173.584 532.83 164.803C536.752 139.629 541.884 114.65 546.059 89.5146C546.532 86.6861 544.884 81.8223 542.672 80.4893C513.475 63.0219 479.892 78.5353 473.777 112.042C471.861 122.515 470.227 133.045 468.397 143.542C463.849 169.642 473.337 180.775 500.016 181.052Z" fill="#ECECEC"/>
<path fill-rule="evenodd" clip-rule="evenodd" d="M1314.66 61.3303C1317.87 43.213 1321.24 26.7775 1323.56 10.194C1325.39 -2.95443 1335.06 1.21652 1342 1.62263C1351.2 2.16252 1346.74 9.21932 1345.92 13.8633C1336.04 69.8443 1325.89 125.777 1316.23 181.796C1314.99 188.968 1312.01 193.187 1305.09 194.061C1286.66 196.402 1268.13 200.525 1249.74 200.091C1224.15 199.484 1206.94 181.505 1208.36 156.126C1209.56 134.664 1213.07 112.596 1220.08 92.357C1231.3 59.9781 1267.75 45.9745 1302.97 57.3599C1306.52 58.5065 1310.04 59.7584 1314.66 61.3303ZM1263.63 181.051C1270.01 180.105 1276.37 178.978 1282.77 178.247C1290.96 177.32 1295.08 173.579 1296.44 164.797C1300.36 139.623 1305.5 114.645 1309.68 89.5094C1310.14 86.6858 1308.5 81.8172 1306.28 80.489C1277.08 63.0215 1243.5 78.5349 1237.39 112.041C1235.47 122.519 1233.83 133.044 1232.01 143.541C1227.46 169.642 1236.95 180.774 1263.63 181.051Z" fill="#ECECEC"/>
<path fill-rule="evenodd" clip-rule="evenodd" d="M2649.22 61.3022C2652.39 43.5051 2655.26 26.6301 2658.47 9.82193C2659.88 2.40685 2674.81 -2.68152 2680.01 2.62657C2681.61 4.26534 2681.71 8.25009 2681.23 10.94C2671.19 67.6663 2660.83 124.335 2650.98 181.09C2649.68 188.596 2646.8 193.259 2639.3 194.205C2621.24 196.489 2603.11 200.512 2585.07 200.187C2558.62 199.704 2541.27 181.052 2542.84 154.559C2544.03 134.569 2547.34 114.13 2553.55 95.1479C2564.87 60.5952 2601.22 45.4593 2637.96 57.5231C2641.48 58.6793 2645 59.8832 2649.22 61.3022ZM2601.69 180.45C2604.07 180.168 2609.34 179.394 2614.64 178.94C2625.13 178.042 2630.16 172.992 2631.73 161.989C2635.16 137.904 2640.21 114.053 2644.16 90.0357C2644.65 87.0878 2643.46 82.1476 2641.33 80.762C2614.31 63.1751 2578.98 77.8715 2572.42 109.271C2570.09 120.437 2568.64 131.784 2566.7 143.026C2562.07 169.881 2571.53 180.956 2601.69 180.45Z" fill="#ECECEC"/>
<path fill-rule="evenodd" clip-rule="evenodd" d="M615.137 136.953C604.186 165.868 615.07 182.557 644.2 179.972C656.551 178.878 668.839 172.858 680.277 167.273C687.08 163.952 689.636 165.71 693.053 170.894C696.45 176.049 697.84 180.153 691.571 184.31C669.135 199.197 644.869 205.136 618.577 198.132C597.497 192.518 586.274 177.311 588.515 155.605C590.579 135.567 593.599 115.315 599.155 96.0076C610.068 58.0579 662.494 40.5665 695.599 62.6636C708.332 71.1585 712.608 83.6379 712.054 98.2865C710.654 135.577 709.249 136.958 673.048 136.958C653.612 136.953 634.176 136.953 615.137 136.953ZM618.615 117.383C641.271 117.383 663.903 117.383 686.45 117.383C687.52 112.472 688.643 108.415 689.254 104.278C691.81 86.925 683.607 76.5525 665.982 74.6223C637.975 71.5502 619.81 87.8375 618.615 117.383Z" fill="#ECECEC"/>
<path fill-rule="evenodd" clip-rule="evenodd" d="M1378.77 136.952C1367.76 165.781 1378.66 182.542 1407.78 179.972C1420.13 178.877 1432.42 172.867 1443.87 167.291C1450.65 163.985 1453.23 165.653 1456.65 170.875C1460.02 176.016 1461.5 180.124 1455.21 184.295C1432.78 199.188 1408.52 205.131 1382.22 198.137C1361.13 192.527 1349.9 177.325 1352.13 155.634C1354.19 135.591 1357.21 115.338 1362.76 96.0263C1373.76 57.7613 1427.66 40.2221 1460.15 63.2605C1472.61 72.0945 1476.47 84.832 1475.63 99.3994C1473.51 136.714 1473.22 136.952 1436.69 136.952C1417.25 136.952 1397.82 136.952 1378.77 136.952ZM1382.04 117.588C1404.99 117.588 1427.35 117.588 1449.96 117.588C1451.04 112.615 1452.3 108.229 1452.92 103.752C1455.24 86.9199 1447.24 76.7768 1430.21 74.6555C1402.59 71.225 1384.43 87.0059 1382.04 117.588Z" fill="#ECECEC"/>
<path fill-rule="evenodd" clip-rule="evenodd" d="M1913.04 136.957C1900.43 136.962 1887.8 136.547 1875.23 137.268C1872.28 137.435 1867.82 140.942 1866.97 143.78C1860.21 166.508 1870.99 181.82 1894.56 179.943C1908.04 178.868 1921.46 173.005 1934.17 167.549C1940.48 164.845 1943.4 164.668 1947.11 170.416C1950.74 176.025 1952.24 180.225 1945.44 184.654C1923.25 199.111 1899.35 205.002 1873.45 198.256C1851.81 192.618 1840.54 177.315 1842.85 154.998C1844.89 135.333 1847.95 115.496 1853.28 96.5088C1864.06 58.0813 1917.42 40.2221 1950.44 62.969C1962.6 71.3492 1966.82 83.4847 1966.4 97.7224C1965.29 135.247 1963.59 136.943 1926.79 136.943C1922.21 136.952 1917.63 136.953 1913.04 136.957ZM1940.71 117.775C1941.83 112.333 1943.18 107.574 1943.76 102.725C1945.58 87.3261 1938.47 77.8088 1923.33 74.923C1894.92 69.4907 1873.06 88.0044 1873.26 117.779C1895.3 117.775 1917.35 117.775 1940.71 117.775Z" fill="#ECECEC"/>
<path fill-rule="evenodd" clip-rule="evenodd" d="M3312.01 136.958C3299.4 136.963 3286.77 136.552 3274.2 137.259C3271.21 137.426 3266.69 140.818 3265.84 143.627C3258.93 166.298 3269.72 181.787 3293.21 179.948C3306.7 178.887 3320.11 173.02 3332.86 167.655C3338.99 165.07 3342.07 164.325 3345.84 170.297C3349.32 175.81 3351.3 180.048 3344.38 184.573C3322.22 199.073 3298.34 204.993 3272.43 198.299C3250.72 192.69 3239.34 177.435 3241.68 155.17C3243.78 135.137 3246.79 114.865 3252.47 95.6013C3263.64 57.7233 3316.37 40.5282 3349.11 62.8881C3361.32 71.2205 3365.6 83.3226 3365.22 97.5698C3364.2 135.094 3362.34 136.953 3325.77 136.953C3321.18 136.953 3316.59 136.953 3312.01 136.958ZM3339.43 117.679C3340.51 112.878 3341.78 108.52 3342.43 104.068C3344.88 87.1734 3336.99 76.9156 3320.07 74.6891C3291.92 70.9816 3272.53 88.0955 3271.86 117.679C3294.25 117.679 3316.63 117.679 3339.43 117.679Z" fill="#ECECEC"/>
<path fill-rule="evenodd" clip-rule="evenodd" d="M3121.05 114.941C3122.14 110.082 3123.38 105.739 3124.05 101.306C3126.39 85.5676 3119.26 74.9993 3103.45 75.1045C3090.06 75.1905 3076.46 78.2529 3063.42 81.7646C3056.46 83.6422 3052.71 84.7221 3049.11 77.0012C3045.35 68.9412 3048.99 66.041 3055.32 63.1792C3075.01 54.2925 3095.47 50.8812 3116.58 55.9838C3138.8 61.354 3150.46 78.8884 3146.91 101.425C3142.7 128.147 3137.88 154.773 3132.81 181.347C3132.07 185.251 3129.28 190.793 3126.14 191.892C3103.99 199.68 3081.12 204.156 3057.72 198.915C3037.3 194.338 3025.68 181.696 3024.33 164.706C3022.76 144.898 3032.53 127.937 3050.89 119.485C3068.88 111.21 3087.9 111.559 3107.04 113.537C3111.5 113.986 3115.96 114.425 3121.05 114.941ZM3117.8 135.405C3098.55 132.533 3080.48 129.007 3062.74 136.737C3051.83 141.487 3045.83 152.041 3047.45 162.322C3049.03 172.365 3056.97 179.627 3069.72 179.904C3081.45 180.162 3093.24 178.49 3104.94 177.052C3107.23 176.77 3110.61 173.994 3111.08 171.84C3113.68 160.048 3115.54 148.085 3117.8 135.405Z" fill="#ECECEC"/>
<path fill-rule="evenodd" clip-rule="evenodd" d="M1724.8 114.951C1725.84 109.505 1727.22 104.407 1727.75 99.2228C1729.19 85.138 1722.41 75.1189 1708.28 75.2384C1694.14 75.3626 1679.8 78.4777 1666.03 82.1232C1659.07 83.9674 1655.93 83.9004 1652.72 77.1495C1649.47 70.2934 1651.07 66.7244 1657.58 63.7097C1677.55 54.4504 1698.34 50.8001 1719.88 55.9171C1742.17 61.2156 1753.94 78.7118 1750.42 101.21C1746.17 128.31 1741.19 155.295 1736.08 182.246C1735.4 185.805 1732.73 190.836 1729.83 191.835C1706.89 199.723 1683.35 204.405 1659.16 198.428C1642.79 194.377 1630.57 184.702 1628.23 167.134C1625.78 148.754 1631.9 133.188 1648.24 122.944C1666.76 111.339 1687.3 111.483 1708.05 113.279C1713.3 113.747 1718.53 114.33 1724.8 114.951ZM1721.25 135.644C1702.08 132.266 1684.02 129.122 1666.28 136.728C1655.26 141.453 1649.32 151.912 1650.91 162.27C1652.46 172.327 1660.4 179.618 1673.14 179.905C1684.87 180.172 1696.68 178.577 1708.35 177.024C1710.78 176.704 1714.14 173.297 1714.72 170.775C1717.33 159.356 1719.09 147.746 1721.25 135.644Z" fill="#ECECEC"/>
<path fill-rule="evenodd" clip-rule="evenodd" d="M1098.55 114.999C1099.65 110.025 1100.75 106.021 1101.41 101.946C1104.02 85.6108 1096.81 74.8132 1080.42 75.0807C1066.67 75.3005 1052.76 78.7357 1039.37 82.3716C1032.77 84.168 1029.67 83.7858 1026.94 77.5317C1024.54 72.023 1023.27 67.8568 1030.15 64.4789C1050.34 54.5507 1071.46 50.8192 1093.4 55.8167C1116.24 61.0197 1127.99 78.8981 1124.31 101.903C1120.08 128.238 1115.09 154.444 1110.73 180.755C1109.53 187.965 1106.45 192.188 1098.98 194.033C1077.39 199.379 1055.78 204.137 1033.58 198.567C1016.75 194.343 1004.26 184.582 1002.11 166.46C999.922 148.047 1006.34 132.686 1022.8 122.567C1039.59 112.242 1058.19 111.717 1077.02 112.801C1083.8 113.202 1090.57 114.168 1098.55 114.999ZM1095.31 135.419C1076.61 132.638 1059.01 129.165 1041.52 136.203C1029.79 140.918 1023.33 151.31 1024.86 162.041C1026.34 172.466 1034.61 179.747 1048.04 179.986C1059.39 180.187 1070.82 178.639 1082.1 177.095C1084.6 176.751 1088.08 173.479 1088.65 170.999C1091.29 159.556 1093.05 147.927 1095.31 135.419Z" fill="#ECECEC"/>
<path fill-rule="evenodd" clip-rule="evenodd" d="M397.05 114.966C398.101 109.567 399.477 104.483 400.017 99.3092C401.489 85.2148 394.738 75.1482 380.629 75.2533C366.496 75.3584 352.153 78.4877 338.374 82.0949C331.509 83.8913 328.241 84.0826 325.025 77.2313C321.839 70.4421 323.21 66.7966 329.779 63.7532C349.75 54.4748 370.538 50.8246 392.072 55.9081C414.388 61.178 426.209 78.6597 422.702 101.144C418.478 128.243 413.481 155.228 408.373 182.184C407.695 185.758 405.067 190.822 402.181 191.821C379.248 199.723 355.703 204.406 331.518 198.462C315.145 194.434 302.9 184.793 300.52 167.23C298.031 148.855 304.175 133.351 320.439 122.983C337.08 112.376 355.708 111.76 374.547 112.744C381.709 113.117 388.832 114.135 397.05 114.966ZM393.534 135.649C374.389 132.257 356.329 129.122 338.585 136.714C327.615 141.406 321.619 151.936 323.186 162.237C324.715 172.304 332.641 179.609 345.383 179.9C357.103 180.173 368.919 178.582 380.586 177.034C383.027 176.714 386.41 173.326 386.983 170.804C389.601 159.38 391.36 147.765 393.534 135.649Z" fill="#ECECEC"/>
<path fill-rule="evenodd" clip-rule="evenodd" d="M2266.94 200.955C2227.03 201.084 2206.78 176.828 2213.14 142.452C2215.23 131.205 2217.28 119.949 2219.25 108.683C2226.33 68.4205 2266.35 44.1878 2305.55 56.4475C2323.54 62.0709 2337.37 77.5938 2335.77 96.337C2333.84 118.936 2330.78 142.184 2323.24 163.383C2313.62 190.406 2289.83 200.392 2266.94 200.955ZM2263.28 180.487C2281.87 180.679 2297.77 172.389 2302.31 156.465C2307.48 138.281 2310.7 119.342 2312.68 100.518C2314.19 86.1365 2303.93 76.3228 2289.4 74.6363C2266.31 71.956 2247.69 84.6505 2242.74 107.197C2239.72 120.942 2237.38 134.874 2235.46 148.821C2232.77 168.419 2243.48 180.277 2263.28 180.487Z" fill="#ECECEC"/>
<path fill-rule="evenodd" clip-rule="evenodd" d="M1978.99 197.272C1982.8 175.862 1986.41 155.294 1990.13 134.745C1993.81 114.468 1997.29 94.1485 2001.58 74.0055C2002.47 69.8202 2005.71 64.2732 2009.28 62.8304C2029.04 54.8419 2049.89 51.5452 2071.03 54.8275C2099.26 59.2135 2113.38 80.9476 2108.37 111.53C2104.17 137.129 2099.27 162.614 2094.54 188.127C2092.86 197.205 2080 203.048 2072.89 197.572C2071.05 196.153 2070.76 191.433 2071.26 188.485C2075.64 162.91 2080.29 137.392 2085.01 111.879C2089.86 85.6298 2079.37 73.4417 2052.48 74.3494C2050.57 74.4163 2048.66 74.5263 2046.76 74.6744C2025.4 76.2989 2023.54 78.0428 2019.79 98.6062C2014.72 126.384 2009.63 154.157 2004.35 181.902C2000.91 200.014 2000.75 199.985 1978.99 197.272Z" fill="#ECECEC"/>
<path fill-rule="evenodd" clip-rule="evenodd" d="M2421.41 51.7324C2433.78 55.0721 2446.33 57.8813 2458.43 62.0189C2462.84 63.5239 2471.29 65.3107 2466.59 73.5667C2462.98 79.8829 2459.9 86.0223 2448.91 81.7223C2436.94 77.0353 2423.24 76.0273 2410.18 75.1291C2404.65 74.7517 2398.15 77.7282 2393.27 80.958C2381.87 88.5164 2382.32 101.861 2394.08 108.908C2399.54 112.176 2405.97 113.843 2412.02 116.07C2420.59 119.218 2429.68 121.292 2437.71 125.439C2465.15 139.61 2466.74 171.874 2441.29 189.48C2417.63 205.844 2374.45 204.468 2351.41 186.967C2345.61 182.557 2344.74 178.725 2349.29 172.82C2353.39 167.497 2356.58 164.999 2363.13 169.948C2377.03 180.459 2393.48 182.562 2409.99 179.752C2417.35 178.501 2425.3 174.392 2430.66 169.193C2439.77 160.374 2436.94 148.549 2425.42 143.121C2419.27 140.231 2412.33 139.051 2406.02 136.428C2396.24 132.343 2385.82 128.936 2377.22 122.998C2357.23 109.209 2357.23 81.2923 2376.55 66.4C2389.54 56.3858 2404.85 53.7677 2421.41 51.7324Z" fill="#ECECEC"/>
<path fill-rule="evenodd" clip-rule="evenodd" d="M3426 202.074C3408.4 201.281 3392.63 196.646 3378.39 186.646C3372.94 182.81 3371.86 178.892 3376.26 173.407C3380.04 168.682 3382.84 164.143 3389.89 169.561C3403.35 179.924 3419.24 182.155 3435.53 180.039C3442.06 179.193 3449.15 176.819 3454.37 172.958C3467.69 163.106 3465.56 147.98 3450.3 141.869C3438.65 137.201 3426.2 134.459 3414.79 129.347C3401.06 123.193 3390.04 113.824 3389.71 96.9155C3389.38 80.2698 3397.16 67.9958 3412.02 61.3738C3437.47 50.0123 3463.13 50.8818 3488.23 63.1319C3492.53 65.2294 3498.49 67.5227 3493.71 73.9631C3490.02 78.9415 3487.9 87.274 3478.06 82.0089C3462.68 73.7673 3446.25 71.9279 3429.3 76.634C3420.13 79.1757 3413.15 84.4455 3412.63 94.5743C3412.1 104.746 3419.73 109.28 3427.86 112.257C3436.79 115.525 3446.14 117.622 3455.11 120.799C3475.73 128.109 3487.11 141.416 3486.67 157.053C3486.16 175.213 3474.32 189.943 3453.77 196.398C3444.8 199.212 3435.28 200.234 3426 202.074Z" fill="#ECECEC"/>
<path fill-rule="evenodd" clip-rule="evenodd" d="M232.088 200.774C196.117 200.741 177.393 178.08 183.914 142.5C186.389 129.003 188.448 115.419 191.344 102.018C202.113 52.1333 260.22 42.9886 292.656 65.081C294.949 66.6433 296.789 72.7589 295.57 74.8133C292.857 79.3809 290.821 86.2608 281.853 82.7157C272.145 78.8744 261.72 75.1525 251.472 74.7273C232.595 73.939 218.777 85.4439 214.382 103.958C210.87 118.769 207.941 133.785 205.987 148.873C203.36 169.169 214.463 181.639 234.893 180.106C245.538 179.308 256.335 175.433 266.201 171.014C273.578 167.707 276.316 169.948 279.613 175.777C283.134 182.012 282.967 186.952 275.8 189.475C261.634 194.458 247.286 198.93 233.015 203.607C232.709 202.666 232.399 201.725 232.088 200.774Z" fill="#ECECEC"/>
<path fill-rule="evenodd" clip-rule="evenodd" d="M2990.62 76.9349C2985.7 104.622 2980.71 130.809 2976.48 157.12C2974.01 172.528 2980.91 179.943 2996.54 180.526C3002.11 180.732 3008.74 179.341 3007.87 188.796C3007.18 196.479 3005.37 201.486 2995.68 201.295C2963.75 200.669 2948.87 183.283 2954.43 151.606C2961.28 112.539 2968.36 73.514 2975.37 34.475C2978.06 19.4824 2979.05 18.8803 2996.65 22.5019C2995.78 33.1324 2994.9 43.9683 2993.86 56.6819C3001.77 56.6819 3009.29 56.037 3016.63 56.9639C3020.06 57.3986 3025.76 60.7383 3025.85 62.9361C3026.08 68.8748 3026.64 76.8584 3016.77 76.9158C3008.41 76.9731 3000.05 76.9349 2990.62 76.9349Z" fill="#ECECEC"/>
<path fill-rule="evenodd" clip-rule="evenodd" d="M2171.94 76.9392C2167.02 104.837 2161.89 131.382 2157.77 158.075C2155.5 172.843 2162.56 179.933 2177.7 180.545C2183.12 180.765 2190.06 179.002 2189.23 188.591C2188.57 196.116 2187.1 201.457 2177.25 201.304C2145.31 200.812 2130.2 183.349 2135.74 151.811C2142.6 112.744 2149.67 73.719 2156.69 34.6799C2159.42 19.4532 2160.1 19.0519 2177.67 22.3438C2177.4 27.6375 2177.2 33.175 2176.81 38.698C2176.42 44.2785 2175.84 49.8445 2175.23 56.691C2183.5 56.691 2190.67 56.6098 2197.82 56.7149C2202.7 56.7866 2208.65 55.7641 2207.58 63.872C2206.74 70.2407 2206.94 77.3977 2197.16 77.006C2189.18 76.6859 2181.19 76.9392 2171.94 76.9392Z" fill="#ECECEC"/>
<path fill-rule="evenodd" clip-rule="evenodd" d="M1597.88 22.7693C1596.99 33.4571 1596.1 44.3361 1595.08 56.6962C1603.39 56.6962 1611 56.0177 1618.39 57.0019C1621.65 57.4367 1626.85 61.0869 1627 63.5331C1627.34 69.1136 1627.6 76.6624 1618.53 76.8774C1609.83 77.0829 1601.12 76.9251 1591.75 76.9251C1586.85 104.899 1581.62 131.783 1577.59 158.849C1575.47 173.068 1582.64 179.91 1597.17 180.579C1602.4 180.818 1609.6 178.534 1609.09 188.213C1608.66 196.412 1606.6 201.634 1596.32 201.304C1564.82 200.301 1550.08 183.149 1555.51 152.184C1562.37 113.121 1569.43 74.0919 1576.46 35.0576C1579.27 19.3913 1580.91 18.4311 1597.88 22.7693Z" fill="#ECECEC"/>
<path fill-rule="evenodd" clip-rule="evenodd" d="M1826.02 180.135C1821.28 188.83 1819.52 197.502 1814.66 199.895C1803.33 205.476 1785.4 199.059 1778.66 189.308C1770.99 178.19 1770.61 165.543 1772.76 152.968C1780.82 105.664 1789.25 58.4165 1797.64 11.1597C1799.18 2.50714 1813.3 -3.30265 1819.44 2.48321C1821.19 4.13631 1821.03 8.72294 1820.51 11.7473C1812.56 57.9291 1804.39 104.068 1796.33 150.226C1795.68 153.967 1795.08 157.775 1795.07 161.559C1795 175.419 1799.64 179.963 1813.61 180.135C1816.2 180.163 1818.78 180.135 1826.02 180.135Z" fill="#ECECEC"/>
<path fill-rule="evenodd" clip-rule="evenodd" d="M3224.18 180.134C3220.15 188.385 3218.79 197.057 3214.03 199.752C3203.25 205.863 3182.34 199.747 3177.66 188.667C3173.28 178.281 3170.1 165.624 3171.73 154.764C3178.94 106.562 3188.31 58.6885 3196.36 10.6051C3198.47 -1.96992 3207.31 1.18816 3214.62 1.4796C3224.07 1.85704 3219.89 8.79439 3219.09 13.4097C3211.16 59.2045 3203.04 104.966 3195.03 150.741C3194.43 154.11 3193.92 157.536 3193.87 160.947C3193.65 175.256 3198.46 180.01 3212.96 180.134C3215.2 180.153 3217.45 180.134 3224.18 180.134Z" fill="#ECECEC"/>
<path fill-rule="evenodd" clip-rule="evenodd" d="M961.724 200.655C950.171 200.12 947.2 196.393 948.953 187.009C956.512 146.556 963.678 106.027 971.098 65.5447C972.551 57.6279 985.88 52.2004 992.158 57.2314C993.902 58.6265 994.552 62.7544 994.093 65.3487C986.678 107.379 979.187 149.399 971.05 191.29C970.353 194.883 964.944 197.559 961.724 200.655Z" fill="#ECECEC"/>
<path fill-rule="evenodd" clip-rule="evenodd" d="M2695.41 198.266C2686.74 199.79 2683.06 197.014 2684.76 187.817C2692.34 146.982 2699.58 106.089 2707.06 65.2342C2708.46 57.5564 2722.5 52.2388 2728.28 57.4131C2729.98 58.9372 2730.43 63.0078 2729.96 65.6499C2722.59 107.298 2715.18 148.941 2707.08 190.45C2706.32 194.334 2700.87 197.301 2697.61 200.698C2696.87 199.886 2696.14 199.073 2695.41 198.266Z" fill="#ECECEC"/>
<path fill-rule="evenodd" clip-rule="evenodd" d="M2935.18 57.8713C2931.7 77.871 2928.42 97.3021 2924.93 116.695C2920.61 140.698 2915.39 164.568 2911.99 188.691C2910.15 201.706 2901.57 198.662 2894.28 198.261C2884.11 197.697 2888.78 189.823 2889.56 185.203C2895.95 147.645 2902.82 110.164 2909.47 72.6392C2912.63 54.8182 2913.34 54.288 2935.18 57.8713Z" fill="#ECECEC"/>
</svg>
