<svg xmlns="http://www.w3.org/2000/svg" height="48" viewBox="0 96 960 960" width="48"><path d="M-8 824v-61q0-43.722 43.95-69.361Q79.9 668 150.398 668q8.158 0 15.38.5 7.222.5 15.222.227-9 19.316-14 39.428-5 20.111-5 42.845v73H-8Zm240 0v-73q0-69.172 68.395-111.086T479.876 598Q592 598 660 639.914T728 751v73H232Zm566 0v-73.143q0-22.088-4.5-42.407-4.5-20.32-13.5-39.723 8 .273 15.229-.227 7.228-.5 14.771-.5 71.7 0 114.85 25.639Q968 719.278 968 763v61H798ZM149.611 640Q119 640 97 617.995q-22-22.006-22-52.907Q75 534 97.005 512q22.006-22 52.907-22Q181 490 203 511.925t22 53.464Q225 596 203.075 618q-21.925 22-53.464 22Zm660 0Q779 640 757 617.995q-22-22.006-22-52.907Q735 534 757.005 512q22.006-22 52.907-22Q841 490 863 511.925t22 53.464Q885 596 863.075 618q-21.925 22-53.464 22Zm-329.14-72q-53.138 0-90.804-37.211Q352 493.579 352 440.421 352 387 389.667 349.5q37.666-37.5 90.804-37.5 53.4 0 90.464 37.268Q608 386.535 608 440.235q0 53.432-37.065 90.598Q533.871 568 480.471 568Z"/></svg>