<?xml version="1.0" encoding="utf-8"?>
<!-- Generator: Adobe Illustrator 25.4.1, SVG Export Plug-In . SVG Version: 6.00 Build 0)  -->
<svg version="1.1" id="Layer_1" xmlns="http://www.w3.org/2000/svg" xmlns:xlink="http://www.w3.org/1999/xlink" x="0px" y="0px"
	 viewBox="0 0 48 48" style="enable-background:new 0 0 48 48;" xml:space="preserve">
<style type="text/css">
	.st0{fill:#003333;}
</style>
<path class="st0" d="M0,44v-4.5c0-2.2,0.7-3.8,2.1-5.2c1.4-1.3,3.2-2,5.4-2c0.4,0,0.8,0,1.2,0s0.7,0.2,1.1,0.2c-0.3,1-0.5,2-0.6,3
	c-0.1,1-0.2,2-0.2,3.2V44H0z M12,44v-5.3c0-1.8,0.3-3.3,0.9-4.8c0.6-1.5,1.4-2.8,2.5-3.8c1.1-1,2.3-2,3.8-2.5
	c1.5-0.5,3.1-0.8,4.8-0.8c1.8,0,3.4,0.3,4.9,0.8c1.5,0.5,2.8,1.3,3.8,2.5c1,1.2,1.9,2.3,2.5,3.8S36,37,36,38.7V44H12z M39,44v-5.3
	c0-1.2-0.1-2.2-0.2-3.2c-0.1-1-0.3-2-0.6-2.8c0.4-0.2,0.7-0.2,1.1-0.2c0.4,0,0.8,0,1.1,0c2.2,0,4.1,0.7,5.4,2s2.2,2.8,2.2,5V44H39z
	 M15,39h18v-0.5c0-2-0.8-3.7-2.5-5s-3.8-2-6.5-2s-4.8,0.7-6.5,2c-1.7,1.3-2.5,3-2.5,5.2V39z M7.5,29.8c-1,0-1.8-0.5-2.5-1.7
	S4,25.7,4,24s0.3-3,1-4.2s1.5-1.7,2.5-1.7s1.8,0.5,2.5,1.7s1,2.5,1,4.2s-0.3,3-1,4.2S8.5,29.8,7.5,29.8z M40.5,29.8
	c-1,0-1.8-0.5-2.5-1.7s-1-2.5-1-4.2s0.3-3,1-4.2s1.5-1.7,2.5-1.7s1.8,0.5,2.5,1.7s1,2.5,1,4.2s-0.3,3-1,4.2S41.5,29.8,40.5,29.8z
	 M24,24c-1.7,0-3.1-1-4.2-3c-1.2-1.8-1.8-4.2-1.8-7s0.6-5.2,1.8-7.2C21,4.8,22.4,4,24,4c1.7,0,3.1,1,4.3,2.8C29.5,8.7,30,11.2,30,14
	s-0.6,5.2-1.7,7C27.1,23,25.7,24,24,24z M24,19c0.9,0,1.6-0.5,2.1-1.5c0.6-1,0.9-2.2,0.9-3.7s-0.3-2.7-0.9-3.5C25.6,9.5,24.9,9,24,9
	s-1.6,0.5-2.1,1.5c-0.6,0.8-0.9,2-0.9,3.5s0.3,2.7,0.9,3.5C22.5,18.3,23.2,19,24,19z"/>
</svg>
