<?xml version="1.0" encoding="utf-8"?>
<!-- Generator: Adobe Illustrator 25.4.1, SVG Export Plug-In . SVG Version: 6.00 Build 0)  -->
<svg version="1.1" id="Layer_1" xmlns="http://www.w3.org/2000/svg" xmlns:xlink="http://www.w3.org/1999/xlink" x="0px" y="0px"
	 viewBox="0 0 48 48" style="enable-background:new 0 0 48 48;" xml:space="preserve">
<style type="text/css">
	.st0{fill:#FFFFFF;}
</style>
<path class="st0" d="M7,44c-0.8,0-1.5-0.4-2.1-1.1S4,41.2,4,40.2V7.8c0-1,0.3-1.9,0.9-2.6C5.5,4.4,6.2,4,7,4h34
	c0.8,0,1.5,0.4,2.1,1.1C43.7,5.9,44,6.8,44,7.8v32.5c0,1-0.3,1.9-0.9,2.6C42.5,43.6,41.8,44,41,44H7z M24,25.1L7,11.2v29h34v-29
	L24,25.1z M24,21.4L40.8,7.8H7.2L24,21.4z M7,11.2V7.8v32.5V11.2z"/>
</svg>
