<svg width="182" height="494" viewBox="0 0 182 494" fill="none" xmlns="http://www.w3.org/2000/svg">
<path d="M71.993 19.2509L79.6409 0.254427C97.0749 6.33989 110.891 14.9747 121.088 26.1587C131.45 37.3428 138.522 50.5006 142.305 65.632C146.088 80.5989 146.828 96.9639 144.525 114.727L136.384 170.976C134.739 182.983 134.986 193.591 137.124 202.801C139.426 211.847 144.114 219.166 151.186 224.758C158.423 230.186 168.373 233.229 181.038 233.887L179.064 253.13C162.617 252.472 148.719 248.771 137.371 242.028C126.022 235.285 117.716 225.91 112.453 213.903C107.19 201.732 105.545 187.341 107.519 170.729L115.66 114.727C117.469 101.076 117.552 88.0002 115.907 75.5003C114.262 63.0004 109.986 51.8986 103.078 42.1947C96.1704 32.3264 85.8086 24.6785 71.993 19.2509ZM5.62861 493.917L0.447746 473.44C14.9213 468.506 27.2567 461.433 37.4539 452.223C47.6512 443.177 55.7925 432.486 61.878 420.151C67.9634 407.816 72.2397 394.247 74.7068 379.444L82.6014 323.688C85.233 305.761 90.825 290.794 99.3776 278.787C107.93 266.617 119.032 257.406 132.683 251.156C146.334 244.742 162.041 241.288 179.804 240.794L177.831 259.791C158.258 260.613 143.127 266.863 132.436 278.541C121.746 290.054 114.92 305.103 111.96 323.688L103.818 379.444C100.858 399.016 95.2658 416.286 87.0422 431.253C78.8186 446.22 67.8812 458.966 54.23 469.493C40.7433 480.019 24.5429 488.16 5.62861 493.917Z" fill="white"/>
</svg>
