<?xml version="1.0" encoding="utf-8"?>
<!-- Generator: Adobe Illustrator 25.4.1, SVG Export Plug-In . SVG Version: 6.00 Build 0)  -->
<svg version="1.1" id="Layer_1" xmlns="http://www.w3.org/2000/svg" xmlns:xlink="http://www.w3.org/1999/xlink" x="0px" y="0px"
	 viewBox="0 0 48 48" style="enable-background:new 0 0 48 48;" xml:space="preserve">
<style type="text/css">
	.st0{fill:#003333;}
</style>
<path class="st0" d="M40.4,4.2c1.8,2,3.1,4.2,4.1,6.5c1,2.3,1.4,5,1.2,8s-0.8,5.7-1.9,7.9s-2.7,4.3-4.6,6.1l-2.4-2.6
	c1.7-1.6,3-3.3,3.9-5.1c0.9-1.7,1.4-3.9,1.6-6.5s-0.2-4.8-1-6.6s-1.9-3.6-3.4-5.4L40.4,4.2z M33.1,11c0.8,1,1.5,2.1,2,3.4
	c0.5,1.3,0.7,2.6,0.6,4c-0.1,1.4-0.4,2.7-1,3.9c-0.6,1.2-1.3,2.3-2.2,3.2l-2.4-2.6c0.6-0.6,1.1-1.3,1.5-2.1c0.4-0.7,0.6-1.6,0.6-2.6
	s-0.1-1.8-0.4-2.6c-0.3-0.8-0.7-1.5-1.3-2.2L33.1,11z M18,26c-2.2,0-4-0.7-5.4-2.1s-2.1-3.2-2.1-5.4s0.7-4,2.1-5.4s3.2-2.1,5.4-2.1
	s4,0.7,5.4,2.1c1.4,1.4,2.1,3.2,2.1,5.4s-0.7,4-2.1,5.4C22,25.2,20.2,26,18,26z M2,42v-4.7C2,36,2.3,35,3,34.1s1.5-1.6,2.5-2.1
	c1.7-0.9,3.7-1.6,6-2.1S15.9,29,18,29s4.2,0.3,6.6,0.9s4.3,1.3,6,2.1c1,0.5,1.8,1.2,2.5,2.1c0.6,0.9,1,2,1,3.2V42H2z M5,39h26v-1.7
	c0-0.5-0.1-1-0.4-1.5s-0.7-0.8-1.2-1.1c-1.6-0.9-3.4-1.6-5.5-2S19.9,32,18,32s-3.9,0.2-5.9,0.7c-2,0.5-3.9,1.1-5.5,2
	c-0.5,0.2-0.8,0.6-1.1,1.1c-0.3,0.5-0.5,1-0.5,1.5V39z M18,23c1.3,0,2.4-0.4,3.2-1.3c0.9-0.9,1.3-1.9,1.3-3.2c0-1.3-0.4-2.4-1.3-3.2
	s-1.9-1.3-3.2-1.3c-1.3,0-2.4,0.4-3.2,1.3c-0.9,0.9-1.3,1.9-1.3,3.2c0,1.3,0.4,2.4,1.3,3.2C15.6,22.5,16.7,23,18,23z"/>
</svg>
