<svg width="184" height="184" viewBox="0 0 184 184" fill="none" xmlns="http://www.w3.org/2000/svg">
<path d="M45.9619 45.9619C71.346 20.5779 112.502 20.5779 137.886 45.9619V45.9619C163.27 71.346 163.27 112.502 137.886 137.886L91.9238 183.848L45.9619 137.886C20.5778 112.502 20.5778 71.346 45.9619 45.9619V45.9619Z" fill="#073B3A"/>
<path d="M63.25 130.333C61.7167 130.333 60.375 129.758 59.225 128.608C58.075 127.458 57.5 126.117 57.5 124.583V65.1665C57.5 63.6332 58.075 62.2915 59.225 61.1415C60.375 59.9915 61.7167 59.4165 63.25 59.4165H69.3833V53.6665H75.5167V59.4165H108.1V53.6665H114.233V59.4165H120.75C122.283 59.4165 123.625 59.9915 124.775 61.1415C125.925 62.2915 126.5 63.6332 126.5 65.1665V124.583C126.5 126.117 125.925 127.458 124.775 128.608C123.625 129.758 122.283 130.333 120.75 130.333H63.25ZM63.25 124.583H120.75V83.3748H63.25V124.583ZM63.25 77.6248H120.75V65.1665H63.25V77.6248ZM92 99.6665C90.85 99.6665 90.0833 99.2832 89.3167 98.5165C88.55 97.7498 88.1667 96.9832 88.1667 95.8332C88.1667 94.6832 88.55 93.9165 89.3167 93.1498C90.0833 92.3832 90.85 91.9998 92 91.9998C93.15 91.9998 93.9167 92.3832 94.6833 93.1498C95.45 93.9165 95.8333 94.6832 95.8333 95.8332C95.8333 96.9832 95.45 97.7498 94.6833 98.5165C93.9167 99.2832 93.15 99.6665 92 99.6665ZM76.6667 99.6665C75.5167 99.6665 74.75 99.2832 73.9833 98.5165C73.2167 97.7498 72.8333 96.9832 72.8333 95.8332C72.8333 94.6832 73.2167 93.9165 73.9833 93.1498C74.75 92.3832 75.5167 91.9998 76.6667 91.9998C77.8167 91.9998 78.5833 92.3832 79.35 93.1498C80.1167 93.9165 80.5 94.6832 80.5 95.8332C80.5 96.9832 80.1167 97.7498 79.35 98.5165C78.5833 99.2832 77.8167 99.6665 76.6667 99.6665ZM107.333 99.6665C106.183 99.6665 105.417 99.2832 104.65 98.5165C103.883 97.7498 103.5 96.9832 103.5 95.8332C103.5 94.6832 103.883 93.9165 104.65 93.1498C105.417 92.3832 106.183 91.9998 107.333 91.9998C108.483 91.9998 109.25 92.3832 110.017 93.1498C110.783 93.9165 111.167 94.6832 111.167 95.8332C111.167 96.9832 110.783 97.7498 110.017 98.5165C109.25 99.2832 108.483 99.6665 107.333 99.6665ZM92 115C90.85 115 90.0833 114.617 89.3167 113.85C88.55 113.083 88.1667 112.317 88.1667 111.167C88.1667 110.017 88.55 109.25 89.3167 108.483C90.0833 107.716 90.85 107.333 92 107.333C93.15 107.333 93.9167 107.716 94.6833 108.483C95.45 109.25 95.8333 110.017 95.8333 111.167C95.8333 112.317 95.45 113.083 94.6833 113.85C93.9167 114.617 93.15 115 92 115ZM76.6667 115C75.5167 115 74.75 114.617 73.9833 113.85C73.2167 113.083 72.8333 112.317 72.8333 111.167C72.8333 110.017 73.2167 109.25 73.9833 108.483C74.75 107.716 75.5167 107.333 76.6667 107.333C77.8167 107.333 78.5833 107.716 79.35 108.483C80.1167 109.25 80.5 110.017 80.5 111.167C80.5 112.317 80.1167 113.083 79.35 113.85C78.5833 114.617 77.8167 115 76.6667 115ZM107.333 115C106.183 115 105.417 114.617 104.65 113.85C103.883 113.083 103.5 112.317 103.5 111.167C103.5 110.017 103.883 109.25 104.65 108.483C105.417 107.716 106.183 107.333 107.333 107.333C108.483 107.333 109.25 107.716 110.017 108.483C110.783 109.25 111.167 110.017 111.167 111.167C111.167 112.317 110.783 113.083 110.017 113.85C109.25 114.617 108.483 115 107.333 115Z" fill="white"/>
</svg>
