<?xml version="1.0" encoding="utf-8"?>
<!-- Generator: Adobe Illustrator 25.4.1, SVG Export Plug-In . SVG Version: 6.00 Build 0)  -->
<svg version="1.1" id="Layer_1" xmlns="http://www.w3.org/2000/svg" xmlns:xlink="http://www.w3.org/1999/xlink" x="0px" y="0px"
	 viewBox="0 0 7140 7276" style="enable-background:new 0 0 7140 7276;" xml:space="preserve">
<style type="text/css">
	.st0{fill:#FFFFFF;}
</style>
<path class="st0" d="M20,0l18.5,11.1c0.6,0.3,1,0.7,1.2,1.2c0.2,0.5,0.3,1,0.3,1.5V37c0,0.8-0.3,1.5-0.9,2.1
	C38.5,39.7,37.8,40,37,40H3c-0.8,0-1.5-0.3-2.1-0.9C0.3,38.5,0,37.8,0,37V13.9c0-0.5,0.1-1,0.3-1.5c0.2-0.5,0.6-0.9,1.1-1.2L20,0z
	 M20,23.3l16.8-9.9L20,3.4L3.2,13.4L20,23.3z M20,26.6l-17-10V37h34V16.6L20,26.6z M20,37h17H3H20z"/>
</svg>
