<svg width="181" height="495" viewBox="0 0 181 495" fill="none" xmlns="http://www.w3.org/2000/svg">
<path d="M175.965 0.761012L180.406 20.7443C158.531 28.1456 141.673 40.3165 129.831 57.2571C117.989 74.0332 110.341 93.5231 106.887 115.727L98.7454 171.729C96.2784 189.821 90.7686 204.953 82.216 217.124C73.6635 229.295 62.4794 238.587 48.6638 245.002C35.0126 251.416 19.3055 254.952 1.54259 255.61L3.51625 235.38C23.0884 234.558 38.2198 228.472 48.9105 217.124C59.7656 205.611 66.6734 190.479 69.6339 171.729L77.7753 115.727C80.7358 96.1547 86.3278 78.8851 94.5514 63.9182C102.775 48.7868 113.63 35.958 127.117 25.4318C140.768 14.7411 157.051 6.51753 175.965 0.761012ZM110.341 474.933L101.953 494.423C84.5186 488.338 70.6208 479.703 60.259 468.519C50.0618 457.499 43.0717 444.506 39.2889 429.539C35.506 414.572 34.7659 398.207 37.0685 380.444L45.2099 324.688C46.8546 312.682 46.5256 302.073 44.223 292.863C41.9204 283.488 37.233 276.087 30.1607 270.659C23.2529 265.067 13.3846 261.86 0.555757 261.038L2.52942 241.054C19.1411 241.548 33.1212 245.331 44.4697 252.403C55.8183 259.311 64.0419 268.932 69.1405 281.268C74.4036 293.603 76.0483 308.077 74.0747 324.688L65.9333 380.444C64.1241 394.095 64.1241 407.089 65.9333 419.424C67.7425 431.759 72.101 442.697 79.0088 452.236C86.0811 461.94 96.5251 469.506 110.341 474.933Z" fill="white"/>
</svg>
