<svg width="184" height="184" viewBox="0 0 184 184" fill="none" xmlns="http://www.w3.org/2000/svg">
<path d="M45.9619 45.9619C71.346 20.5779 112.502 20.5779 137.886 45.9619C163.27 71.346 163.27 112.502 137.886 137.886L91.9238 183.848L45.9619 137.886C20.5778 112.502 20.5778 71.346 45.9619 45.9619Z" fill="#073B3A"/>
<path d="M46 115V109.825C46 107.333 47.3417 105.417 50.025 103.883C52.7083 102.35 56.1583 101.583 60.375 101.583C61.1417 101.583 61.9083 101.583 62.675 101.583C63.4417 101.583 64.0167 101.775 64.7833 101.775C64.2083 102.925 63.825 104.075 63.6333 105.225C63.4417 106.375 63.25 107.525 63.25 108.867V115H46ZM69 115V108.867C69 106.758 69.575 105.033 70.725 103.308C71.875 101.583 73.4083 100.05 75.5167 98.9C77.625 97.75 79.925 96.6 82.8 96.025C85.675 95.45 88.7417 95.0667 92 95.0667C95.45 95.0667 98.5167 95.45 101.392 96.025C104.267 96.6 106.758 97.5583 108.675 98.9C110.592 100.242 112.317 101.583 113.467 103.308C114.617 105.033 115 106.95 115 108.867V115H69ZM120.75 115V108.867C120.75 107.525 120.558 106.375 120.367 105.225C120.175 104.075 119.792 102.925 119.217 101.967C119.983 101.775 120.558 101.775 121.325 101.775C122.092 101.775 122.858 101.775 123.433 101.775C127.65 101.775 131.292 102.542 133.783 104.075C136.275 105.608 138 107.333 138 109.825V115H120.75ZM74.75 109.25H109.25V108.675C109.25 106.375 107.717 104.458 104.458 102.925C101.2 101.392 97.175 100.625 92 100.625C86.825 100.625 82.8 101.392 79.5417 102.925C76.2833 104.458 74.75 106.375 74.75 108.867V109.25ZM60.375 98.7083C58.4583 98.7083 56.925 98.1333 55.5833 96.7917C54.2417 95.45 53.6667 93.9167 53.6667 92C53.6667 90.0833 54.2417 88.55 55.5833 87.2083C56.925 85.8667 58.4583 85.2917 60.375 85.2917C62.2917 85.2917 63.825 85.8667 65.1667 87.2083C66.5083 88.55 67.0833 90.0833 67.0833 92C67.0833 93.9167 66.5083 95.45 65.1667 96.7917C63.825 98.1333 62.2917 98.7083 60.375 98.7083ZM123.625 98.7083C121.708 98.7083 120.175 98.1333 118.833 96.7917C117.492 95.45 116.917 93.9167 116.917 92C116.917 90.0833 117.492 88.55 118.833 87.2083C120.175 85.8667 121.708 85.2917 123.625 85.2917C125.542 85.2917 127.075 85.8667 128.417 87.2083C129.758 88.55 130.333 90.0833 130.333 92C130.333 93.9167 129.758 95.45 128.417 96.7917C127.075 98.1333 125.542 98.7083 123.625 98.7083ZM92 92C88.7417 92 86.0583 90.85 83.95 88.55C81.65 86.4417 80.5 83.7583 80.5 80.5C80.5 77.2417 81.65 74.5583 83.95 72.2583C86.25 69.9583 88.9333 69 92 69C95.2583 69 97.9417 70.15 100.242 72.2583C102.542 74.3667 103.5 77.2417 103.5 80.5C103.5 83.7583 102.35 86.4417 100.242 88.55C97.9417 90.85 95.2583 92 92 92ZM92 86.25C93.725 86.25 95.0667 85.675 96.025 84.525C97.175 83.375 97.75 82.0333 97.75 80.3083C97.75 78.5833 97.175 77.2417 96.025 76.2833C95.0667 75.325 93.725 74.75 92 74.75C90.275 74.75 88.9333 75.325 87.975 76.475C86.825 77.4333 86.25 78.775 86.25 80.5C86.25 82.225 86.825 83.5667 87.975 84.525C89.125 85.4833 90.4667 86.25 92 86.25Z" fill="white"/>
</svg>
