<svg width="184" height="184" viewBox="0 0 184 184" fill="none" xmlns="http://www.w3.org/2000/svg">
<path d="M45.9619 137.886C20.5779 112.502 20.5779 71.346 45.9619 45.9619C71.346 20.5778 112.502 20.5778 137.886 45.9619L183.848 91.9238L137.886 137.886C112.502 163.27 71.346 163.27 45.9619 137.886Z" fill="white"/>
<path d="M63.5833 125C62.0944 125 60.7917 124.442 59.675 123.325C58.5583 122.208 58 120.906 58 119.417V63.5833C58 62.0944 58.5583 60.7917 59.675 59.675C60.7917 58.5583 62.0944 58 63.5833 58H106.575L125 76.425V119.417C125 120.906 124.442 122.208 123.325 123.325C122.208 124.442 120.906 125 119.417 125H63.5833ZM63.5833 119.417H119.417V79.5889H103.597V63.5833H63.5833V119.417ZM72.7028 109.181H110.111V103.597H72.7028V109.181ZM72.7028 79.4028H91.5V73.8194H72.7028V79.4028ZM72.7028 94.2917H110.111V88.7083H72.7028V94.2917Z" fill="#003333"/>
</svg>
