<svg width="184" height="184" viewBox="0 0 184 184" fill="none" xmlns="http://www.w3.org/2000/svg">
<path d="M45.9619 45.9619C71.346 20.5779 112.502 20.5779 137.886 45.9619V45.9619C163.27 71.346 163.27 112.502 137.886 137.886L91.9238 183.848L45.9619 137.886C20.5778 112.502 20.5778 71.346 45.9619 45.9619V45.9619Z" fill="#073B3A"/>
<path d="M126.705 57C130.019 60.6825 132.413 64.7333 134.254 68.9683C136.095 73.2032 136.832 78.1746 136.463 83.6984C136.095 89.2222 134.99 94.1937 132.965 98.2444C130.94 102.295 127.994 106.162 124.495 109.476L120.076 104.689C123.206 101.743 125.6 98.6127 127.257 95.2984C128.914 92.1683 129.835 88.1175 130.203 83.3302C130.571 78.5429 129.835 74.4921 128.362 71.1778C126.889 67.8635 124.863 64.5492 122.102 61.2349L126.705 57ZM113.263 69.5206C114.737 71.3619 116.025 73.3873 116.946 75.781C117.867 78.1746 118.235 80.5683 118.051 83.146C117.867 85.7238 117.314 88.1175 116.21 90.327C115.105 92.5365 113.816 94.5619 112.159 96.219L107.74 91.4317C108.844 90.327 109.765 89.0381 110.502 87.5651C111.238 86.2762 111.606 84.619 111.606 82.7778C111.606 80.9365 111.422 79.4635 110.87 77.9905C110.317 76.5175 109.581 75.2286 108.476 73.9397L113.263 69.5206ZM85.4603 97.1397C81.4095 97.1397 78.0952 95.8508 75.5175 93.273C72.9397 90.6952 71.6508 87.381 71.6508 83.3302C71.6508 79.2794 72.9397 75.9651 75.5175 73.3873C78.0952 70.8095 81.4095 69.5206 85.4603 69.5206C89.5111 69.5206 92.8254 70.8095 95.4032 73.3873C97.981 75.9651 99.2698 79.2794 99.2698 83.3302C99.2698 87.381 97.981 90.6952 95.4032 93.273C92.8254 95.6667 89.5111 97.1397 85.4603 97.1397ZM56 126.6V117.946C56 115.552 56.5524 113.711 57.8413 112.054C59.1302 110.397 60.6032 109.108 62.4444 108.187C65.5746 106.53 69.2571 105.241 73.4921 104.321C77.727 103.4 81.5937 102.663 85.4603 102.663C89.327 102.663 93.1937 103.216 97.6127 104.321C102.032 105.425 105.53 106.714 108.66 108.187C110.502 109.108 111.975 110.397 113.263 112.054C114.368 113.711 115.105 115.737 115.105 117.946V126.6H56ZM61.5238 121.076H109.397V117.946C109.397 117.025 109.213 116.105 108.66 115.184C108.108 114.263 107.371 113.711 106.451 113.159C103.505 111.502 100.19 110.213 96.3238 109.476C92.4571 108.74 88.9587 108.187 85.4603 108.187C81.9619 108.187 78.2794 108.556 74.5968 109.476C70.9143 110.397 67.4159 111.502 64.4698 113.159C63.5492 113.527 62.9968 114.263 62.4444 115.184C61.8921 116.105 61.5238 117.025 61.5238 117.946V121.076ZM85.4603 91.6159C87.854 91.6159 89.8794 90.8794 91.3524 89.2222C93.0095 87.5651 93.746 85.7238 93.746 83.3302C93.746 80.9365 93.0095 78.9111 91.3524 77.4381C89.6952 75.9651 87.854 75.0444 85.4603 75.0444C83.0667 75.0444 81.0413 75.781 79.5683 77.4381C77.9111 79.0952 77.1746 80.9365 77.1746 83.3302C77.1746 85.7238 77.9111 87.7492 79.5683 89.2222C81.0413 90.6952 83.0667 91.6159 85.4603 91.6159Z" fill="white"/>
</svg>
