<svg width="624" height="1711" viewBox="0 0 624 1711" fill="none" xmlns="http://www.w3.org/2000/svg">
<path d="M607.842 0.764939L623.22 69.9665C547.468 95.5967 489.088 137.744 448.08 196.409C407.072 254.504 380.587 321.997 368.627 398.887L340.433 592.822C331.89 655.474 312.81 707.874 283.193 750.021C253.575 792.168 214.845 824.349 167.002 846.561C119.729 868.774 65.3359 881.02 3.82341 883.298L10.6581 813.242C78.4358 810.394 130.835 789.321 167.857 750.021C205.448 710.152 229.369 657.752 239.621 592.822L267.814 398.887C278.066 331.11 297.432 271.306 325.91 219.476C354.388 167.076 391.978 122.651 438.682 86.1989C485.956 49.1775 542.342 20.6995 607.842 0.764939ZM380.587 1642.81L351.54 1710.3C291.166 1689.23 243.039 1659.32 207.156 1620.59C171.844 1582.43 147.637 1537.44 134.537 1485.61C121.438 1433.78 118.875 1377.11 126.848 1315.59L155.042 1122.51C160.737 1080.94 159.598 1044.2 151.624 1012.3C143.65 979.838 127.418 954.208 102.927 935.413C79.0053 916.048 44.8317 904.941 0.40605 902.093L7.24077 832.892C64.7663 834.601 113.179 847.7 152.479 872.192C191.778 896.113 220.256 929.432 237.913 972.149C256.138 1014.87 261.834 1064.99 254.999 1122.51L226.806 1315.59C220.541 1362.87 220.541 1407.86 226.806 1450.58C233.071 1493.3 248.165 1531.17 272.086 1564.21C296.577 1597.81 332.744 1624.01 380.587 1642.81Z" fill="#ECECEC"/>
</svg>
