<svg width="1050" height="1814" viewBox="0 0 1050 1814" fill="none" xmlns="http://www.w3.org/2000/svg">
<path d="M463.138 4.74492L430.182 67.5086C496.584 112.073 541.896 168.032 566.119 235.385C590.492 302.189 598.387 374.261 589.804 451.602L566.252 646.155C558.099 708.858 562.798 764.425 580.351 812.856C597.903 861.286 626.86 902.482 667.22 936.443C707.032 970.255 756.323 996.311 815.094 1014.61L826.835 945.208C762.166 924.719 717.109 890.665 691.665 843.045C665.821 794.726 656.449 737.892 663.549 672.542L687.102 477.989C694.948 409.891 691.912 347.103 677.993 289.626C664.223 231.6 639.571 178.883 604.037 131.478C568.102 83.3732 521.136 41.129 463.138 4.74492ZM252.665 1649.02L263.034 1721.76C326.818 1717.23 381.095 1700.97 425.864 1672.98C469.934 1645.39 505.074 1608.3 531.283 1561.71C557.493 1515.11 574.8 1461.09 583.205 1399.63L606.534 1205.9C611.92 1164.29 622.635 1129.13 638.68 1100.43C654.873 1071.19 677.248 1050.7 705.805 1038.97C733.962 1026.54 769.851 1024.77 813.473 1033.65L824.99 965.068C769.023 951.659 718.869 951.631 674.529 964.981C630.338 977.782 594.132 1002.49 565.91 1039.09C537.138 1075.55 518.522 1122.43 510.061 1179.74L486.733 1373.47C480.405 1420.73 468.628 1464.16 451.4 1503.75C434.172 1543.34 409.691 1575.94 377.957 1601.56C345.524 1627.58 303.76 1643.4 252.665 1649.02Z" fill="#ECECEC"/>
</svg>
