<svg width="3499" height="1406" viewBox="0 0 3499 1406" fill="none" xmlns="http://www.w3.org/2000/svg">
<path fill-rule="evenodd" clip-rule="evenodd" d="M0.00481158 419.645C2.57047 407.146 4.60098 394.504 7.95497 382.221C9.28318 377.357 12.6754 370.558 16.6171 369.301C47.5196 359.435 57.2758 334.515 62.6507 306.55C69.9798 268.443 75.6558 230.001 83.8974 192.104C90.8921 159.955 107.925 134.25 142.888 128.087C162.234 124.68 182.357 125.559 202.142 124.843C208.874 124.604 212.018 128.985 211.067 135.306C208.396 152.993 205.811 170.728 201.894 188.153C201.115 191.602 194.694 195.826 190.599 196.146C164.814 198.172 154.881 206.901 150.394 232.505C144.943 263.608 139.539 294.725 133.433 325.7C126.72 359.789 108.737 386.038 77.1417 401.747C83.95 410.017 91.5466 417.112 96.5107 425.722C108.522 446.543 108.751 469.161 104.322 492.286C98.9521 520.312 94.1075 548.443 89.2389 576.561C88.4602 581.037 88.5366 585.691 88.5653 590.263C88.6322 600.669 95.0009 604.362 104.313 603.961C131.111 602.819 128.617 607.133 124.308 629.259C122.124 640.458 120.046 651.695 118.383 662.981C117.093 671.757 113.591 677.018 103.644 676.272C87.3422 675.049 70.5962 676.268 54.7674 672.947C29.13 667.572 11.6147 646.287 12.7232 620.024C13.9367 591.271 18.6381 562.633 22.5749 534.048C25.2218 514.837 29.5552 495.859 32.4601 476.677C36.1438 452.329 29.3546 441.431 5.99611 432.086C3.89867 431.245 1.99232 429.907 0 428.804C0.00477776 425.76 0.00481158 422.702 0.00481158 419.645Z" fill="#729D2F"/>
<path fill-rule="evenodd" clip-rule="evenodd" d="M2818.27 0C2825.99 6.38786 2824.66 12.4079 2818.07 18.9104C2781.99 54.5333 2746.17 90.4143 2709.87 125.798C2706.22 129.358 2699.96 131.823 2694.82 131.99C2673.5 132.674 2652.13 132.482 2630.79 132.086C2627.16 132.019 2621.57 130.237 2620.48 127.7C2619.25 124.843 2621.02 119.377 2623.31 116.515C2651.88 80.811 2680.71 45.3075 2709.73 9.96165C2713 5.97701 2717.85 3.2871 2721.97 0C2754.06 0 2786.16 0 2818.27 0Z" fill="#729D2F"/>
<path fill-rule="evenodd" clip-rule="evenodd" d="M565.764 188.717C570.27 163.543 574.512 140.036 578.674 116.511C583.38 89.9128 587.909 63.2864 592.739 36.7125C594.278 28.2511 598.912 23.4447 608.463 23.5451C639.021 23.8508 669.58 23.545 700.139 23.717C712.131 23.7839 715.58 28.5521 713.516 40.3293C697.75 130.256 682.088 220.202 666.326 310.129C651.023 397.447 635.644 484.747 620.307 572.055C618.816 580.522 614.86 586.417 606.193 589.681C545.721 612.456 483.033 623.421 418.877 617.611C355.533 611.878 306.49 582.466 284.311 518.879C274.694 491.307 273.48 462.764 278.506 434.208C285.424 394.877 290.933 355.088 301.172 316.593C322.93 234.774 376.594 185.592 460.983 173.571C491.57 169.214 522.726 171.923 552.176 183.815C555.984 185.353 559.907 186.615 565.764 188.717ZM460.993 513.17C472.34 511.258 486.587 508.984 500.777 506.399C507.867 505.105 511.259 501.144 512.535 493.308C518.651 455.769 525.66 418.379 532.282 380.926C536.983 354.328 541.464 327.687 546.276 301.114C547.833 292.523 546.132 286.876 536.992 283.431C515.803 275.462 494.294 271.458 472.134 277.454C443.143 285.299 427.558 307.004 421.586 334.367C412.594 375.575 404.811 417.18 399.455 458.999C396.001 485.974 407.883 506.065 437.419 510.623C444.165 511.655 451.007 512.109 460.993 513.17Z" fill="#729D2F"/>
<path fill-rule="evenodd" clip-rule="evenodd" d="M1030.03 437.738C994.49 437.743 958.944 438.106 923.412 437.518C913.187 437.351 908.18 441.163 907.865 450.767C907.492 462.08 906.217 473.772 908.434 484.665C912.313 503.752 931.873 515.663 956.01 516.862C997.109 518.912 1034.14 506.222 1069.27 486.399C1084.39 477.871 1085.23 478.019 1093.47 493.456C1102.82 510.971 1112.3 528.41 1121.47 546.011C1128.5 559.494 1127.16 564.53 1114.74 572.6C1061.74 607.014 1003.27 620.487 940.597 618.676C898.634 617.463 859.6 607.788 827.231 579.718C791.847 549.036 778.158 509.113 784.69 463.523C791.699 414.575 799.73 365.632 810.47 317.391C827.694 240.01 878.768 194.923 954.706 178C996.473 168.693 1038.77 169.347 1080.27 181.875C1137.82 199.242 1172.19 243.379 1170.5 303.426C1169.6 335.561 1162.7 367.533 1158.4 399.568C1157.44 406.73 1155.98 413.82 1154.83 420.963C1152.57 435.053 1149.69 437.69 1135.52 437.719C1100.36 437.776 1065.2 437.733 1030.03 437.738ZM927.014 357.959C931.032 358.169 935.122 358.556 939.212 358.566C965.9 358.623 992.584 358.594 1019.27 358.594C1049.63 358.594 1049.63 358.594 1052.99 328.246C1055.68 303.961 1041.8 282.27 1019.16 276.689C971.83 265.022 927.411 293.832 927.014 357.959Z" fill="#729D2F"/>
<path fill-rule="evenodd" clip-rule="evenodd" d="M2990.49 620.11C2945.99 619.885 2905.33 609.193 2872.27 578.319C2835.67 544.129 2821.7 500.733 2827.92 451.742C2833.28 409.506 2839.8 367.271 2848.7 325.652C2866.43 242.615 2920.73 195.171 3001.89 177.905C3047.23 168.254 3093.09 167.847 3136.43 188.139C3191.09 213.738 3220.33 258.018 3220.13 317.716C3220.01 351.963 3211.91 386.291 3206.21 420.385C3202.26 443.978 3198.24 467.871 3190.82 490.504C3167.83 560.632 3117.03 599.604 3045.98 613.502C3027.75 617.066 3008.99 617.979 2990.49 620.11ZM3096.66 340.205C3096.73 304.396 3084.36 285.753 3061.72 279.513C3023.27 268.926 2980.35 292.49 2971.78 331.581C2962.5 373.907 2955.61 416.797 2948.92 459.63C2945.3 482.788 2958.66 503.781 2979.2 510.503C3012.98 521.554 3065.59 508.564 3075.92 455.918C3078.77 441.364 3081.41 426.759 3084.02 412.153C3088.74 385.584 3093.37 358.991 3096.66 340.205Z" fill="#729D2F"/>
<path fill-rule="evenodd" clip-rule="evenodd" d="M1977.15 356.999C1978.17 344.72 1979.66 334.171 1979.8 323.602C1980.13 298.801 1967.31 284.319 1942.53 281.4C1903.56 276.809 1865.79 282.456 1829.26 296.345C1811.95 302.924 1809.35 302.121 1802.93 285.218C1795.49 265.61 1788.29 245.902 1780.6 226.389C1776.96 217.163 1779.49 211.516 1788.17 206.934C1815.46 192.539 1844.53 183.647 1874.77 178.593C1915.58 171.77 1956.61 168.521 1997.52 177.503C2053.3 189.753 2090.19 232.108 2097.82 288.753C2102.76 325.451 2096.61 360.912 2090.3 396.539C2079.88 455.373 2068.95 514.115 2058.73 572.987C2056.82 583.999 2050.96 589.58 2040.95 592.786C1978.94 612.661 1915.43 622.604 1850.44 617.864C1807.49 614.73 1768.59 600.664 1740.2 565.146C1700.98 516.055 1707.74 401.389 1801.43 367.596C1846.94 351.179 1893.77 349.106 1941.29 353.196C1952.61 354.17 1963.89 355.58 1977.15 356.999ZM1904.99 430.915C1893.66 433.749 1877.69 436.004 1863.13 441.828C1845.79 448.765 1837.41 467.437 1840.05 486.098C1842.53 503.719 1852.11 514.99 1873.17 516.361C1896.07 517.856 1919.29 515.052 1942.31 513.236C1945.21 513.007 1949.39 507.737 1950.09 504.23C1953.91 484.828 1957.14 465.287 1959.7 445.679C1960.02 443.175 1955.59 437.996 1952.73 437.475C1938.54 434.867 1924.13 433.405 1904.99 430.915Z" fill="#729D2F"/>
<path fill-rule="evenodd" clip-rule="evenodd" d="M1419.38 620.97C1359.7 619.599 1305.1 605.132 1257.62 567.989C1245.97 558.873 1245.16 554.177 1253.82 542.28C1267.52 523.446 1281.28 504.655 1295.09 485.893C1303.61 474.312 1307.59 473.433 1319.68 481.846C1354.12 505.817 1392.24 517.254 1434.01 514.13C1446.58 513.193 1459.44 509.271 1471.05 504.163C1482.45 499.142 1489.03 488.263 1488.56 475.454C1488.1 462.731 1478.61 455.836 1467.7 452.267C1452.54 447.313 1436.76 444.226 1421.54 439.42C1404.87 434.16 1387.75 429.439 1372.19 421.709C1309.62 390.62 1287.8 334.63 1311.28 268.276C1325.64 227.699 1353.91 199.854 1394.22 187.207C1473.8 162.229 1552.05 165.812 1626.88 205.716C1643.62 214.636 1644.16 218.282 1632.63 233.652C1618.88 251.984 1605.21 270.373 1591.4 288.658C1582.46 300.502 1579.72 301.023 1566.57 294.372C1530.37 276.064 1492.23 270.087 1452.22 276.785C1447.46 277.583 1442.62 279.566 1438.47 282.069C1419.24 293.679 1419.04 319.45 1439.16 329.03C1454.1 336.144 1470.83 339.45 1486.66 344.768C1505.75 351.184 1525.62 356.096 1543.58 364.868C1604.96 394.834 1626.65 448.789 1605.1 513.733C1586.79 568.935 1545.72 598.28 1491.6 610.961C1468.04 616.474 1443.48 617.759 1419.38 620.97Z" fill="#729D2F"/>
<path fill-rule="evenodd" clip-rule="evenodd" d="M2420.37 297.239C2409.29 297.248 2398.19 297.497 2387.12 297.157C2380.64 296.957 2377.77 299.14 2376.59 305.905C2369.42 347.152 2361.72 388.307 2354.29 429.516C2344.3 484.947 2334.3 540.379 2324.56 595.858C2322.91 605.242 2317.35 608.92 2308.75 608.959C2278.56 609.092 2248.37 609.188 2218.19 608.92C2206.69 608.82 2202.68 604.816 2204.43 593.111C2208.77 564.143 2214.03 535.305 2219.14 506.457C2233.36 426.267 2247.49 346.058 2262.04 265.925C2269.78 223.25 2276.22 180.188 2286.97 138.249C2304.8 68.6565 2349.97 25.6137 2422.03 15.9339C2450.41 12.1213 2479.74 14.8302 2508.63 15.3845C2517.69 15.5565 2523.71 21.027 2521.97 31.3279C2517.32 58.7187 2512.8 86.1383 2507.32 113.362C2506.7 116.429 2500.32 120.271 2496.51 120.39C2485.89 120.72 2475.23 118.723 2464.58 118.641C2432.15 118.398 2411.96 133.352 2402.52 163.944C2392.98 194.823 2393.55 195.616 2425.28 195.616C2439.8 195.616 2454.32 195.482 2468.84 195.683C2479.32 195.826 2483.92 200.843 2482.22 210.704C2478.03 235.09 2473.34 259.389 2469.12 283.77C2467.45 293.421 2461.91 297.415 2452.47 297.267C2441.77 297.1 2431.07 297.229 2420.37 297.239Z" fill="#729D2F"/>
<path fill-rule="evenodd" clip-rule="evenodd" d="M1338.22 1130.9C1328.66 1130.9 1319.11 1130.95 1309.56 1130.89C1296 1130.79 1293.73 1127.96 1296.22 1114.22C1300.59 1090.19 1305.02 1066.19 1309.4 1042.17C1320.78 979.865 1331.93 917.516 1343.89 855.328C1344.99 849.624 1350.11 842.223 1355.22 840.149C1396.33 823.413 1439.15 813.346 1483.65 818.908C1500.51 821.019 1516.92 828.888 1532.79 835.83C1538.75 838.434 1542.6 839.194 1548.32 836.413C1581.38 820.326 1616.17 812.787 1652.74 819.433C1705.44 829.012 1738.38 869.189 1737.26 925.791C1736.71 953.411 1730.86 981.022 1726.28 1008.45C1720.19 1044.94 1712.71 1081.21 1706.49 1117.68C1704.8 1127.6 1700.54 1131.32 1690.61 1131.05C1671.52 1130.53 1652.4 1130.95 1633.3 1130.88C1620.03 1130.82 1617.24 1127.45 1619.58 1114.11C1626.77 1073.14 1634.11 1032.21 1641.25 991.227C1644.33 973.563 1647.5 955.895 1649.81 938.127C1653.66 908.667 1637.07 891.883 1607.66 894.869C1603.5 895.289 1599.34 896.068 1595.27 897.072C1575.63 901.916 1576.74 902.929 1576.18 922.986C1575.55 945.709 1572.2 968.475 1568.52 990.974C1561.55 1033.51 1553.28 1075.84 1546.07 1118.33C1544.47 1127.79 1540.23 1131.25 1530.85 1131.03C1511.76 1130.57 1492.64 1130.93 1473.54 1130.88C1459.01 1130.84 1456.95 1128.07 1459.45 1113.76C1469.4 1057.02 1479.26 1000.26 1489.01 943.478C1489.91 938.246 1490.24 932.828 1490.06 927.525C1489.37 905.844 1477.84 894.879 1455.96 894.711C1454.05 894.697 1452.13 894.625 1450.23 894.759C1425.6 896.46 1423.48 898.462 1419.08 922.599C1407.26 987.538 1395.15 1052.43 1383.7 1117.44C1381.83 1128.05 1377.1 1131.69 1366.87 1131.03C1357.35 1130.42 1347.77 1130.9 1338.22 1130.9Z" fill="#ECECEC"/>
<path fill-rule="evenodd" clip-rule="evenodd" d="M1133.71 949.555C1134.5 940.368 1135.89 932.456 1135.7 924.582C1135.34 910.077 1128.73 901.701 1114.4 898.82C1085.9 893.092 1058.21 897.874 1031.27 907.588C1014.92 913.488 1014.68 913.675 1008.28 896.981C1003.64 884.884 999.442 872.6 994.449 860.651C990.459 851.105 992.395 845.314 1002.12 840.58C1034 825.08 1067.87 817.866 1102.87 817.928C1122.77 817.966 1143.56 819.648 1162.4 825.554C1201.18 837.708 1224.04 872.022 1222.85 916.995C1222.08 946.154 1216.61 975.269 1212.09 1004.22C1206.97 1036.99 1200.91 1069.64 1194.37 1102.16C1193.19 1108.07 1188.89 1116.44 1184.12 1118.06C1132.21 1135.67 1078.95 1144.87 1024.3 1134.71C982.079 1126.86 953.871 1098.54 949.395 1062.9C941.908 1003.31 973.656 961.18 1034.98 949.446C1067.17 943.292 1099.43 943.913 1133.71 949.555ZM1122.06 1009.72C1100.27 1005.64 1079.61 1002.82 1058.99 1009.39C1043.81 1014.23 1035.74 1027.91 1038.05 1043.23C1039.91 1055.62 1049.68 1063.84 1065.52 1064.02C1079.56 1064.18 1093.66 1062.68 1107.66 1061.26C1110.16 1061 1113.93 1057.86 1114.39 1055.51C1117.33 1040.64 1119.49 1025.62 1122.06 1009.72Z" fill="#ECECEC"/>
<path fill-rule="evenodd" clip-rule="evenodd" d="M550.031 949.455C550.891 945.198 551.713 941.916 552.2 938.586C556.395 910.101 545.072 897.081 516.047 896.584C491.341 896.164 467.276 899.413 444.457 909.221C435.375 913.125 430.181 910.889 426.956 901.601C422.202 887.917 417.2 874.301 411.682 860.909C407.778 851.43 409.279 845.228 419.135 840.704C465.895 819.237 514.767 811.727 565.263 821.038C608.798 829.07 635.983 862.385 640.044 906.474C643.045 939.054 634.989 970.186 629.82 1001.71C624.388 1034.83 617.747 1067.74 612.386 1100.87C610.637 1111.69 605.888 1117.7 595.301 1120.8C545.368 1135.44 494.824 1144.32 442.876 1135C397.172 1126.8 368.348 1096.1 365.806 1055.19C362.748 1005.97 387.177 968.829 433.081 954.4C468.714 943.206 505.206 943.014 541.895 948.165C544.155 948.485 546.395 948.877 550.031 949.455ZM539.248 1009.67C516.439 1005.79 494.628 1002.02 473.138 1010.82C459.799 1016.29 452.718 1029.83 455.088 1043.18C457.271 1055.46 466.311 1063.55 481.494 1063.89C495.914 1064.22 510.409 1062.67 524.805 1061.29C527.361 1061.04 531.255 1057.88 531.718 1055.51C534.618 1040.63 536.73 1025.58 539.248 1009.67Z" fill="#ECECEC"/>
<path fill-rule="evenodd" clip-rule="evenodd" d="M2670.76 184.163C2686.04 184.163 2701.32 184.044 2716.6 184.206C2728.1 184.33 2732.01 188.616 2730.03 199.839C2722.95 239.915 2715.47 279.919 2708.29 319.981C2694.19 398.618 2680.18 477.269 2666.13 555.916C2663.79 569.021 2661.55 582.146 2659.09 595.232C2657.37 604.419 2651.69 609.035 2642.28 609.03C2612.88 609.016 2583.46 609.173 2554.06 608.963C2540.47 608.863 2536.53 603.736 2538.87 590.449C2561.95 459.716 2585.07 328.987 2607.99 198.219C2609.76 188.105 2614.64 183.762 2624.94 184.058C2640.2 184.488 2655.48 184.163 2670.76 184.163Z" fill="#729D2F"/>
<path fill-rule="evenodd" clip-rule="evenodd" d="M3424.14 397.877C3389.58 371.953 3391.26 336.689 3397.76 300.129C3402.7 272.413 3407.67 244.702 3412.34 216.944C3414.56 203.776 3408.47 197.001 3394.65 196.371C3372.4 195.358 3372.34 195.348 3376.11 173.108C3378.34 159.983 3380.26 146.758 3383.52 133.892C3384.44 130.256 3389.55 125.134 3392.83 125.067C3408.77 124.733 3424.97 124.389 3440.66 126.797C3479.87 132.812 3493.34 168.736 3488.25 204.197C3482.24 245.978 3474.3 287.478 3468 329.216C3465.33 346.908 3472.72 364.466 3491.33 368.27C3494.33 368.881 3498.46 375.441 3498.15 378.895C3496.77 394.017 3494.27 409.067 3491.38 423.988C3490.8 426.993 3487.2 430.892 3484.24 431.732C3455.48 439.874 3444.43 462.458 3439.1 488.416C3431.3 526.404 3425.59 564.826 3417.98 602.857C3415.62 614.644 3411.01 626.288 3405.62 637.09C3392.74 662.9 3369.71 673.492 3342.25 675.408C3328.19 676.387 3314 675.465 3299.88 675.828C3290.96 676.062 3288.07 671.442 3289.34 663.659C3292.09 646.765 3294.65 629.79 3298.73 613.201C3299.66 609.398 3306.19 604.687 3310.45 604.353C3335.44 602.384 3344.47 595.691 3349.37 571.109C3355.48 540.527 3360.89 509.801 3366.35 479.094C3372.51 444.437 3389.09 417.156 3420.99 400.429C3421.96 399.913 3422.74 399.024 3424.14 397.877Z" fill="#729D2F"/>
<path fill-rule="evenodd" clip-rule="evenodd" d="M849.486 832.409C864.761 832.409 878.076 832.338 891.392 832.428C904.488 832.519 907.264 835.754 905.08 848.219C902.309 864.005 899.165 879.728 896.753 895.562C895.391 904.501 890.709 907.922 882.018 907.769C867.537 907.511 853.051 907.697 837.203 907.697C833.352 928.906 829.525 949.756 825.793 970.62C822.903 986.769 819.941 1002.91 817.399 1019.11C816.462 1025.1 815.985 1031.3 816.415 1037.33C817.337 1050.22 824.312 1057.53 836.902 1059.75C839.893 1060.27 842.979 1060.58 846.008 1060.51C879.233 1059.77 871.779 1062.9 868.296 1087.47C866.581 1099.55 865 1111.76 861.698 1123.45C860.341 1128.24 855.196 1134.52 850.781 1135.46C826.563 1140.62 802.139 1140.56 778.599 1131.72C745.049 1119.13 727.773 1093.01 727.644 1058.68C727.534 1029.58 732.297 1000.25 737.047 971.366C748.255 903.235 760.969 835.357 772.502 767.279C774.418 755.97 779.019 751.498 790.495 751.971C807.28 752.664 824.112 752.282 840.92 752.1C849.73 752.005 853.418 755.994 852.926 764.728C851.679 786.777 850.666 808.841 849.486 832.409Z" fill="#ECECEC"/>
<path fill-rule="evenodd" clip-rule="evenodd" d="M260.674 710.873C270.984 710.873 281.294 710.739 291.605 710.911C302.527 711.092 305.403 714.36 303.578 724.848C286.889 820.637 270.038 916.402 253.502 1012.22C251.902 1021.5 250.793 1031.23 251.734 1040.51C253.139 1054.4 260.631 1059.94 274.997 1060.54C297.816 1061.49 297.83 1061.5 293.96 1084.57C291.691 1098.11 289.068 1111.59 287.176 1125.18C286.149 1132.54 282.159 1136.54 275.317 1136.68C258.6 1137.01 241.424 1139.07 225.247 1136.08C189.719 1129.49 164.698 1100.6 163.456 1062.09C162.567 1034.58 165.892 1006.57 170.441 979.301C184.559 894.687 200.331 810.346 214.979 725.817C216.948 714.461 221.835 709.903 233.197 710.739C242.303 711.403 251.505 710.873 260.674 710.873Z" fill="#ECECEC"/>
<path fill-rule="evenodd" clip-rule="evenodd" d="M1928.86 1213.45C1887.25 1213.45 1845.63 1213.47 1804.02 1213.44C1789.9 1213.43 1788.3 1211.44 1790.62 1197.2C1793.14 1181.77 1795.96 1166.38 1798.17 1150.91C1799.48 1141.65 1804.32 1137.73 1813.49 1137.73C1898.24 1137.81 1983 1137.71 2067.75 1137.85C2079.93 1137.87 2082.6 1141.49 2080.52 1153.33C2077.66 1169.47 2074.36 1185.54 2071.86 1201.73C2070.47 1210.72 2065.97 1213.65 2057.14 1213.58C2014.38 1213.28 1971.62 1213.45 1928.86 1213.45Z" fill="#ECECEC"/>
<path fill-rule="evenodd" clip-rule="evenodd" d="M2729.82 1378.45C2737.39 1379.32 2742.94 1382.46 2742.52 1391.23C2742.09 1400.14 2737.39 1405.34 2728.23 1405.64C2719.8 1405.91 2715.2 1401.25 2715.27 1393.17C2715.35 1384.2 2720.93 1379.57 2729.82 1378.45Z" fill="#ECECEC"/>
<path fill-rule="evenodd" clip-rule="evenodd" d="M1006.75 1392.17C1005.66 1400.04 1001.45 1405.51 992.166 1405.65C983.719 1405.78 979.189 1401.08 979.381 1393.02C979.591 1384.1 985.028 1378.86 993.924 1378.73C1001.89 1378.61 1006.71 1382.84 1006.75 1392.17Z" fill="#ECECEC"/>
<path fill-rule="evenodd" clip-rule="evenodd" d="M2934.39 1378.46C2942.02 1379.54 2947.28 1383.05 2946.6 1391.72C2945.89 1400.64 2940.97 1405.63 2931.82 1405.64C2923.35 1405.64 2919.04 1400.72 2919.38 1392.69C2919.77 1383.69 2925.5 1379.28 2934.39 1378.46Z" fill="#ECECEC"/>
</svg>
