<svg width="3499" height="1625" viewBox="0 0 3499 1625" fill="none" xmlns="http://www.w3.org/2000/svg">
<path fill-rule="evenodd" clip-rule="evenodd" d="M0.00481158 419.645C2.57047 407.146 4.60098 394.504 7.95497 382.221C9.28318 377.357 12.6754 370.558 16.6171 369.301C47.5196 359.435 57.2758 334.515 62.6507 306.55C69.9798 268.443 75.6558 230.001 83.8974 192.104C90.8921 159.955 107.925 134.25 142.888 128.087C162.234 124.68 182.357 125.559 202.142 124.843C208.874 124.604 212.018 128.985 211.067 135.306C208.396 152.993 205.811 170.728 201.894 188.153C201.115 191.602 194.694 195.826 190.599 196.146C164.814 198.172 154.881 206.901 150.394 232.505C144.943 263.608 139.539 294.725 133.433 325.7C126.72 359.789 108.737 386.038 77.1417 401.747C83.95 410.017 91.5466 417.112 96.5107 425.722C108.522 446.543 108.751 469.161 104.322 492.286C98.9521 520.312 94.1075 548.443 89.2389 576.561C88.4602 581.037 88.5366 585.691 88.5653 590.263C88.6322 600.669 95.0009 604.362 104.313 603.961C131.111 602.819 128.617 607.133 124.308 629.259C122.124 640.458 120.046 651.695 118.383 662.981C117.093 671.757 113.591 677.018 103.644 676.272C87.3422 675.049 70.5962 676.268 54.7674 672.947C29.13 667.572 11.6147 646.287 12.7232 620.024C13.9367 591.271 18.6381 562.633 22.5749 534.048C25.2218 514.837 29.5552 495.859 32.4601 476.677C36.1438 452.329 29.3546 441.431 5.99611 432.086C3.89867 431.245 1.99232 429.907 0 428.804C0.00477776 425.76 0.00481158 422.702 0.00481158 419.645Z" fill="#729D2F"/>
<path fill-rule="evenodd" clip-rule="evenodd" d="M2818.27 0C2825.99 6.38786 2824.66 12.4079 2818.07 18.9104C2781.99 54.5333 2746.17 90.4143 2709.87 125.798C2706.22 129.358 2699.96 131.823 2694.82 131.99C2673.5 132.674 2652.13 132.482 2630.79 132.086C2627.16 132.019 2621.57 130.237 2620.48 127.7C2619.25 124.843 2621.02 119.377 2623.31 116.515C2651.88 80.811 2680.71 45.3075 2709.73 9.96165C2713 5.97701 2717.85 3.2871 2721.97 0C2754.06 0 2786.16 0 2818.27 0Z" fill="#729D2F"/>
<path fill-rule="evenodd" clip-rule="evenodd" d="M565.764 188.717C570.27 163.543 574.512 140.036 578.674 116.511C583.38 89.9128 587.909 63.2864 592.739 36.7125C594.278 28.2511 598.912 23.4447 608.463 23.5451C639.021 23.8508 669.58 23.545 700.139 23.717C712.131 23.7839 715.58 28.5521 713.516 40.3293C697.75 130.256 682.088 220.202 666.326 310.129C651.023 397.447 635.644 484.747 620.307 572.055C618.816 580.522 614.86 586.417 606.193 589.681C545.721 612.456 483.033 623.421 418.877 617.611C355.533 611.878 306.49 582.466 284.311 518.879C274.694 491.307 273.48 462.764 278.506 434.208C285.424 394.877 290.933 355.088 301.172 316.593C322.93 234.774 376.594 185.592 460.983 173.571C491.57 169.214 522.726 171.923 552.176 183.815C555.984 185.353 559.907 186.615 565.764 188.717ZM460.993 513.17C472.34 511.258 486.587 508.984 500.777 506.399C507.867 505.105 511.259 501.144 512.535 493.308C518.651 455.769 525.66 418.379 532.282 380.926C536.983 354.328 541.464 327.687 546.276 301.114C547.833 292.523 546.132 286.876 536.992 283.431C515.803 275.462 494.294 271.458 472.134 277.454C443.143 285.299 427.558 307.004 421.586 334.367C412.594 375.575 404.811 417.18 399.455 458.999C396.001 485.974 407.883 506.065 437.419 510.623C444.165 511.655 451.007 512.109 460.993 513.17Z" fill="#729D2F"/>
<path fill-rule="evenodd" clip-rule="evenodd" d="M1030.03 437.738C994.49 437.743 958.944 438.106 923.412 437.518C913.187 437.351 908.18 441.163 907.865 450.767C907.492 462.08 906.217 473.772 908.434 484.665C912.313 503.752 931.873 515.663 956.01 516.862C997.109 518.912 1034.14 506.222 1069.27 486.399C1084.39 477.871 1085.23 478.019 1093.47 493.456C1102.82 510.971 1112.3 528.41 1121.47 546.011C1128.5 559.494 1127.16 564.53 1114.74 572.6C1061.74 607.014 1003.27 620.487 940.597 618.676C898.634 617.463 859.6 607.788 827.231 579.718C791.847 549.036 778.158 509.113 784.69 463.523C791.699 414.575 799.73 365.632 810.47 317.391C827.694 240.01 878.768 194.923 954.706 178C996.473 168.693 1038.77 169.347 1080.27 181.875C1137.82 199.242 1172.19 243.379 1170.5 303.426C1169.6 335.561 1162.7 367.533 1158.4 399.568C1157.44 406.73 1155.98 413.82 1154.83 420.963C1152.57 435.053 1149.69 437.69 1135.52 437.719C1100.36 437.776 1065.2 437.733 1030.03 437.738ZM927.014 357.959C931.032 358.169 935.122 358.556 939.212 358.566C965.9 358.623 992.584 358.594 1019.27 358.594C1049.63 358.594 1049.63 358.594 1052.99 328.246C1055.68 303.961 1041.8 282.27 1019.16 276.689C971.83 265.022 927.411 293.832 927.014 357.959Z" fill="#729D2F"/>
<path fill-rule="evenodd" clip-rule="evenodd" d="M2990.49 620.11C2945.99 619.885 2905.33 609.193 2872.27 578.319C2835.67 544.129 2821.7 500.733 2827.92 451.742C2833.28 409.506 2839.8 367.271 2848.7 325.652C2866.43 242.615 2920.73 195.171 3001.89 177.905C3047.23 168.254 3093.09 167.847 3136.43 188.139C3191.09 213.738 3220.33 258.018 3220.13 317.716C3220.01 351.963 3211.91 386.291 3206.21 420.385C3202.26 443.978 3198.24 467.871 3190.82 490.504C3167.83 560.632 3117.03 599.604 3045.98 613.502C3027.75 617.066 3008.99 617.979 2990.49 620.11ZM3096.66 340.205C3096.73 304.396 3084.36 285.753 3061.72 279.513C3023.27 268.926 2980.35 292.49 2971.78 331.581C2962.5 373.907 2955.61 416.797 2948.92 459.63C2945.3 482.788 2958.66 503.781 2979.2 510.503C3012.98 521.554 3065.59 508.564 3075.92 455.918C3078.77 441.364 3081.41 426.759 3084.02 412.153C3088.74 385.584 3093.37 358.991 3096.66 340.205Z" fill="#729D2F"/>
<path fill-rule="evenodd" clip-rule="evenodd" d="M1977.15 356.999C1978.17 344.72 1979.66 334.171 1979.8 323.602C1980.13 298.801 1967.31 284.319 1942.53 281.4C1903.56 276.809 1865.79 282.456 1829.26 296.345C1811.95 302.924 1809.35 302.121 1802.93 285.218C1795.49 265.61 1788.29 245.902 1780.6 226.389C1776.96 217.163 1779.49 211.516 1788.17 206.934C1815.46 192.539 1844.53 183.647 1874.77 178.593C1915.58 171.77 1956.61 168.521 1997.52 177.503C2053.3 189.753 2090.19 232.108 2097.82 288.753C2102.76 325.451 2096.61 360.912 2090.3 396.539C2079.88 455.373 2068.95 514.115 2058.73 572.987C2056.82 583.999 2050.96 589.58 2040.95 592.786C1978.94 612.661 1915.43 622.604 1850.44 617.864C1807.49 614.73 1768.59 600.664 1740.2 565.146C1700.98 516.055 1707.74 401.389 1801.43 367.596C1846.94 351.179 1893.77 349.106 1941.29 353.196C1952.61 354.17 1963.89 355.58 1977.15 356.999ZM1904.99 430.915C1893.66 433.749 1877.69 436.004 1863.13 441.828C1845.79 448.765 1837.41 467.437 1840.05 486.098C1842.53 503.719 1852.11 514.99 1873.17 516.361C1896.07 517.856 1919.29 515.052 1942.31 513.236C1945.21 513.007 1949.39 507.737 1950.09 504.23C1953.91 484.828 1957.14 465.287 1959.7 445.679C1960.02 443.175 1955.59 437.996 1952.73 437.475C1938.54 434.867 1924.13 433.405 1904.99 430.915Z" fill="#729D2F"/>
<path fill-rule="evenodd" clip-rule="evenodd" d="M1419.38 620.97C1359.7 619.599 1305.1 605.132 1257.62 567.989C1245.97 558.873 1245.16 554.177 1253.82 542.28C1267.52 523.446 1281.28 504.655 1295.09 485.893C1303.61 474.312 1307.59 473.433 1319.68 481.846C1354.12 505.817 1392.24 517.254 1434.01 514.13C1446.58 513.193 1459.44 509.271 1471.05 504.163C1482.45 499.142 1489.03 488.263 1488.56 475.454C1488.1 462.731 1478.61 455.836 1467.7 452.267C1452.54 447.313 1436.76 444.226 1421.54 439.42C1404.87 434.16 1387.75 429.439 1372.19 421.709C1309.62 390.62 1287.8 334.63 1311.28 268.276C1325.64 227.699 1353.91 199.854 1394.22 187.207C1473.8 162.229 1552.05 165.812 1626.88 205.716C1643.62 214.636 1644.16 218.282 1632.63 233.652C1618.88 251.984 1605.21 270.373 1591.4 288.658C1582.46 300.502 1579.72 301.023 1566.57 294.372C1530.37 276.064 1492.23 270.087 1452.22 276.785C1447.46 277.583 1442.62 279.566 1438.47 282.069C1419.24 293.679 1419.04 319.45 1439.16 329.03C1454.1 336.144 1470.83 339.45 1486.66 344.768C1505.75 351.184 1525.62 356.096 1543.58 364.868C1604.96 394.834 1626.65 448.789 1605.1 513.733C1586.79 568.935 1545.72 598.28 1491.6 610.961C1468.04 616.474 1443.48 617.759 1419.38 620.97Z" fill="#729D2F"/>
<path fill-rule="evenodd" clip-rule="evenodd" d="M2420.37 297.239C2409.29 297.248 2398.19 297.497 2387.12 297.157C2380.64 296.957 2377.77 299.14 2376.59 305.905C2369.42 347.152 2361.72 388.307 2354.29 429.516C2344.3 484.947 2334.3 540.379 2324.56 595.858C2322.91 605.242 2317.35 608.92 2308.75 608.959C2278.56 609.092 2248.37 609.188 2218.19 608.92C2206.69 608.82 2202.68 604.816 2204.43 593.111C2208.77 564.143 2214.03 535.305 2219.14 506.457C2233.36 426.267 2247.49 346.058 2262.04 265.925C2269.78 223.25 2276.22 180.188 2286.97 138.249C2304.8 68.6565 2349.97 25.6137 2422.03 15.9339C2450.41 12.1213 2479.74 14.8302 2508.63 15.3845C2517.69 15.5565 2523.71 21.027 2521.97 31.3279C2517.32 58.7187 2512.8 86.1383 2507.32 113.362C2506.7 116.429 2500.32 120.271 2496.51 120.39C2485.89 120.72 2475.23 118.723 2464.58 118.641C2432.15 118.398 2411.96 133.352 2402.52 163.944C2392.98 194.823 2393.55 195.616 2425.28 195.616C2439.8 195.616 2454.32 195.482 2468.84 195.683C2479.32 195.826 2483.92 200.843 2482.22 210.704C2478.03 235.09 2473.34 259.389 2469.12 283.77C2467.45 293.421 2461.91 297.415 2452.47 297.267C2441.77 297.1 2431.07 297.229 2420.37 297.239Z" fill="#729D2F"/>
<path fill-rule="evenodd" clip-rule="evenodd" d="M1338.22 1130.9C1328.66 1130.9 1319.11 1130.95 1309.56 1130.89C1296 1130.79 1293.73 1127.96 1296.22 1114.22C1300.59 1090.19 1305.02 1066.19 1309.4 1042.17C1320.78 979.865 1331.93 917.516 1343.89 855.328C1344.99 849.624 1350.11 842.223 1355.22 840.149C1396.33 823.413 1439.15 813.346 1483.65 818.908C1500.51 821.019 1516.92 828.888 1532.79 835.83C1538.75 838.434 1542.6 839.194 1548.32 836.413C1581.38 820.326 1616.17 812.787 1652.74 819.433C1705.44 829.012 1738.38 869.189 1737.26 925.791C1736.71 953.411 1730.86 981.022 1726.28 1008.45C1720.19 1044.94 1712.71 1081.21 1706.49 1117.68C1704.8 1127.6 1700.54 1131.32 1690.61 1131.05C1671.52 1130.53 1652.4 1130.95 1633.3 1130.88C1620.03 1130.82 1617.24 1127.45 1619.58 1114.11C1626.77 1073.14 1634.11 1032.21 1641.25 991.227C1644.33 973.563 1647.5 955.895 1649.81 938.127C1653.66 908.667 1637.07 891.883 1607.66 894.869C1603.5 895.289 1599.34 896.068 1595.27 897.072C1575.63 901.916 1576.74 902.929 1576.18 922.986C1575.55 945.709 1572.2 968.475 1568.52 990.974C1561.55 1033.51 1553.28 1075.84 1546.07 1118.33C1544.47 1127.79 1540.23 1131.25 1530.85 1131.03C1511.76 1130.57 1492.64 1130.93 1473.54 1130.88C1459.01 1130.84 1456.95 1128.07 1459.45 1113.76C1469.4 1057.02 1479.26 1000.26 1489.01 943.478C1489.91 938.246 1490.24 932.828 1490.06 927.525C1489.37 905.844 1477.84 894.879 1455.96 894.711C1454.05 894.697 1452.13 894.625 1450.23 894.759C1425.6 896.46 1423.48 898.462 1419.08 922.599C1407.26 987.538 1395.15 1052.43 1383.7 1117.44C1381.83 1128.05 1377.1 1131.69 1366.87 1131.03C1357.35 1130.42 1347.77 1130.9 1338.22 1130.9Z" fill="#ECECEC"/>
<path fill-rule="evenodd" clip-rule="evenodd" d="M1133.71 949.555C1134.5 940.368 1135.89 932.456 1135.7 924.582C1135.34 910.077 1128.73 901.701 1114.4 898.82C1085.9 893.092 1058.21 897.874 1031.27 907.588C1014.92 913.488 1014.68 913.675 1008.28 896.981C1003.64 884.884 999.442 872.6 994.449 860.651C990.459 851.105 992.395 845.314 1002.12 840.58C1034 825.08 1067.87 817.866 1102.87 817.928C1122.77 817.966 1143.56 819.648 1162.4 825.554C1201.18 837.708 1224.04 872.022 1222.85 916.995C1222.08 946.154 1216.61 975.269 1212.09 1004.22C1206.97 1036.99 1200.91 1069.64 1194.37 1102.16C1193.19 1108.07 1188.89 1116.44 1184.12 1118.06C1132.21 1135.67 1078.95 1144.87 1024.3 1134.71C982.079 1126.86 953.871 1098.54 949.395 1062.9C941.908 1003.31 973.656 961.18 1034.98 949.446C1067.17 943.292 1099.43 943.913 1133.71 949.555ZM1122.06 1009.72C1100.27 1005.64 1079.61 1002.82 1058.99 1009.39C1043.81 1014.23 1035.74 1027.91 1038.05 1043.23C1039.91 1055.62 1049.68 1063.84 1065.52 1064.02C1079.56 1064.18 1093.66 1062.68 1107.66 1061.26C1110.16 1061 1113.93 1057.86 1114.39 1055.51C1117.33 1040.64 1119.49 1025.62 1122.06 1009.72Z" fill="#ECECEC"/>
<path fill-rule="evenodd" clip-rule="evenodd" d="M550.031 949.455C550.891 945.198 551.713 941.916 552.2 938.586C556.395 910.101 545.072 897.081 516.047 896.584C491.341 896.164 467.276 899.413 444.457 909.221C435.375 913.125 430.181 910.889 426.956 901.601C422.202 887.917 417.2 874.301 411.682 860.909C407.778 851.43 409.279 845.228 419.135 840.704C465.895 819.237 514.767 811.727 565.263 821.038C608.798 829.07 635.983 862.385 640.044 906.474C643.045 939.054 634.989 970.186 629.82 1001.71C624.388 1034.83 617.747 1067.74 612.386 1100.87C610.637 1111.69 605.888 1117.7 595.301 1120.8C545.368 1135.44 494.824 1144.32 442.876 1135C397.172 1126.8 368.348 1096.1 365.806 1055.19C362.748 1005.97 387.177 968.829 433.081 954.4C468.714 943.206 505.206 943.014 541.895 948.165C544.155 948.485 546.395 948.877 550.031 949.455ZM539.248 1009.67C516.439 1005.79 494.628 1002.02 473.138 1010.82C459.799 1016.29 452.718 1029.83 455.088 1043.18C457.271 1055.46 466.311 1063.55 481.494 1063.89C495.914 1064.22 510.409 1062.67 524.805 1061.29C527.361 1061.04 531.255 1057.88 531.718 1055.51C534.618 1040.63 536.73 1025.58 539.248 1009.67Z" fill="#ECECEC"/>
<path fill-rule="evenodd" clip-rule="evenodd" d="M2670.76 184.163C2686.04 184.163 2701.32 184.044 2716.6 184.206C2728.1 184.33 2732.01 188.616 2730.03 199.839C2722.95 239.915 2715.47 279.919 2708.29 319.981C2694.19 398.618 2680.18 477.269 2666.13 555.916C2663.79 569.021 2661.55 582.146 2659.09 595.232C2657.37 604.419 2651.69 609.035 2642.28 609.03C2612.88 609.016 2583.46 609.173 2554.06 608.963C2540.47 608.863 2536.53 603.736 2538.87 590.449C2561.95 459.716 2585.07 328.987 2607.99 198.219C2609.76 188.105 2614.64 183.762 2624.94 184.058C2640.2 184.488 2655.48 184.163 2670.76 184.163Z" fill="#729D2F"/>
<path fill-rule="evenodd" clip-rule="evenodd" d="M3424.14 397.877C3389.58 371.953 3391.26 336.689 3397.76 300.129C3402.7 272.413 3407.67 244.702 3412.34 216.944C3414.56 203.776 3408.47 197.001 3394.65 196.371C3372.4 195.358 3372.34 195.348 3376.11 173.108C3378.34 159.983 3380.26 146.758 3383.52 133.892C3384.44 130.256 3389.55 125.134 3392.83 125.067C3408.77 124.733 3424.97 124.389 3440.66 126.797C3479.87 132.812 3493.34 168.736 3488.25 204.197C3482.24 245.978 3474.3 287.478 3468 329.216C3465.33 346.908 3472.72 364.466 3491.33 368.27C3494.33 368.881 3498.46 375.441 3498.15 378.895C3496.77 394.017 3494.27 409.067 3491.38 423.988C3490.8 426.993 3487.2 430.892 3484.24 431.732C3455.48 439.874 3444.43 462.458 3439.1 488.416C3431.3 526.404 3425.59 564.826 3417.98 602.857C3415.62 614.644 3411.01 626.288 3405.62 637.09C3392.74 662.9 3369.71 673.492 3342.25 675.408C3328.19 676.387 3314 675.465 3299.88 675.828C3290.96 676.062 3288.07 671.442 3289.34 663.659C3292.09 646.765 3294.65 629.79 3298.73 613.201C3299.66 609.398 3306.19 604.687 3310.45 604.353C3335.44 602.384 3344.47 595.691 3349.37 571.109C3355.48 540.527 3360.89 509.801 3366.35 479.094C3372.51 444.437 3389.09 417.156 3420.99 400.429C3421.96 399.913 3422.74 399.024 3424.14 397.877Z" fill="#729D2F"/>
<path fill-rule="evenodd" clip-rule="evenodd" d="M849.486 832.409C864.761 832.409 878.076 832.338 891.392 832.428C904.488 832.519 907.264 835.754 905.08 848.219C902.309 864.005 899.165 879.728 896.753 895.562C895.391 904.501 890.709 907.922 882.018 907.769C867.537 907.511 853.051 907.697 837.203 907.697C833.352 928.906 829.525 949.756 825.793 970.62C822.903 986.769 819.941 1002.91 817.399 1019.11C816.462 1025.1 815.985 1031.3 816.415 1037.33C817.337 1050.22 824.312 1057.53 836.902 1059.75C839.893 1060.27 842.979 1060.58 846.008 1060.51C879.233 1059.77 871.779 1062.9 868.296 1087.47C866.581 1099.55 865 1111.76 861.698 1123.45C860.341 1128.24 855.196 1134.52 850.781 1135.46C826.563 1140.62 802.139 1140.56 778.599 1131.72C745.049 1119.13 727.773 1093.01 727.644 1058.68C727.534 1029.58 732.297 1000.25 737.047 971.366C748.255 903.235 760.969 835.357 772.502 767.279C774.418 755.97 779.019 751.498 790.495 751.971C807.28 752.664 824.112 752.282 840.92 752.1C849.73 752.005 853.418 755.994 852.926 764.728C851.679 786.777 850.666 808.841 849.486 832.409Z" fill="#ECECEC"/>
<path fill-rule="evenodd" clip-rule="evenodd" d="M260.674 710.873C270.984 710.873 281.294 710.739 291.605 710.911C302.527 711.092 305.403 714.36 303.578 724.848C286.889 820.637 270.038 916.402 253.502 1012.22C251.902 1021.5 250.793 1031.23 251.734 1040.51C253.139 1054.4 260.631 1059.94 274.997 1060.54C297.816 1061.49 297.83 1061.5 293.96 1084.57C291.691 1098.11 289.068 1111.59 287.176 1125.18C286.149 1132.54 282.159 1136.54 275.317 1136.68C258.6 1137.01 241.424 1139.07 225.247 1136.08C189.719 1129.49 164.698 1100.6 163.456 1062.09C162.567 1034.58 165.892 1006.57 170.441 979.301C184.559 894.687 200.331 810.346 214.979 725.817C216.948 714.461 221.835 709.903 233.197 710.739C242.303 711.403 251.505 710.873 260.674 710.873Z" fill="#ECECEC"/>
<path fill-rule="evenodd" clip-rule="evenodd" d="M1928.86 1213.45C1887.25 1213.45 1845.63 1213.47 1804.02 1213.44C1789.9 1213.43 1788.3 1211.44 1790.62 1197.2C1793.14 1181.77 1795.96 1166.38 1798.17 1150.91C1799.48 1141.65 1804.32 1137.73 1813.49 1137.73C1898.24 1137.81 1983 1137.71 2067.75 1137.85C2079.93 1137.87 2082.6 1141.49 2080.52 1153.33C2077.66 1169.47 2074.36 1185.54 2071.86 1201.73C2070.47 1210.72 2065.97 1213.65 2057.14 1213.58C2014.38 1213.28 1971.62 1213.45 1928.86 1213.45Z" fill="#ECECEC"/>
<path fill-rule="evenodd" clip-rule="evenodd" d="M2729.82 1378.45C2737.39 1379.32 2742.94 1382.46 2742.52 1391.23C2742.09 1400.14 2737.39 1405.34 2728.23 1405.64C2719.8 1405.91 2715.2 1401.25 2715.27 1393.17C2715.35 1384.2 2720.93 1379.57 2729.82 1378.45Z" fill="#ECECEC"/>
<path fill-rule="evenodd" clip-rule="evenodd" d="M1006.75 1392.17C1005.66 1400.04 1001.45 1405.51 992.166 1405.65C983.719 1405.78 979.189 1401.08 979.381 1393.02C979.591 1384.1 985.028 1378.86 993.924 1378.73C1001.89 1378.61 1006.71 1382.84 1006.75 1392.17Z" fill="#ECECEC"/>
<path fill-rule="evenodd" clip-rule="evenodd" d="M2934.39 1378.46C2942.02 1379.54 2947.28 1383.05 2946.6 1391.72C2945.89 1400.64 2940.97 1405.63 2931.82 1405.64C2923.35 1405.64 2919.04 1400.72 2919.38 1392.69C2919.77 1383.69 2925.5 1379.28 2934.39 1378.46Z" fill="#ECECEC"/>
<path fill-rule="evenodd" clip-rule="evenodd" d="M727.707 1566.36C730.784 1548.75 733.622 1531.97 736.665 1515.22C741.023 1491.19 745.079 1467.1 750.33 1443.26C751.409 1438.38 756.359 1432.08 760.889 1430.59C785.432 1422.48 810.305 1416.45 834.657 1432.18C836.616 1433.45 840.782 1431.32 843.916 1430.74C857.662 1428.16 871.379 1423.58 885.153 1423.4C915.975 1423.01 934.718 1445.9 929.873 1476.32C925.912 1501.18 921.182 1525.92 916.71 1550.71C913.356 1569.29 913.299 1569.28 892.181 1566.21C892.439 1562.4 892.353 1558.39 893.027 1554.52C897.427 1529.34 902.191 1504.23 906.452 1479.03C910.81 1453.24 899.725 1441.42 873.524 1443.67C868.637 1444.09 863.844 1445.64 859.009 1446.67C850.701 1448.42 848.747 1452.62 848.536 1461.76C848.135 1479.52 844.561 1497.22 841.9 1514.89C839.679 1529.6 836.673 1544.19 834.399 1558.89C832.412 1571.73 822.603 1567.39 815.575 1567.16C806.812 1566.88 811.103 1559.86 811.786 1555.84C815.795 1532.15 820.09 1508.5 824.595 1484.9C831.317 1449.67 817.128 1436.57 782.226 1445.7C775.25 1447.53 771.486 1450.32 770.162 1458.28C765.026 1489.13 759.02 1519.84 753.11 1550.56C749.584 1568.89 749.393 1568.85 727.707 1566.36Z" fill="#ECECEC"/>
<path fill-rule="evenodd" clip-rule="evenodd" d="M2831.8 1559.25C2818.89 1560.5 2806.5 1562.81 2794.15 1562.65C2766.82 1562.3 2749.39 1544.61 2750.95 1517.47C2751.97 1499.72 2755.03 1481.77 2759.81 1464.64C2766.66 1440.02 2785.45 1427.41 2809.94 1423.8C2829.5 1420.92 2848.64 1423.37 2866.92 1431.75C2873.9 1434.96 2876.69 1439.02 2875.3 1446.82C2868.09 1487.34 2861.9 1528.05 2854.04 1568.44C2844.21 1618.92 2788.13 1640.56 2747.84 1610.1C2742.53 1606.08 2737.33 1602.61 2743.7 1594.6C2749.16 1587.74 2752.83 1587.08 2760.37 1592.23C2790.59 1612.9 2825.85 1599.2 2831.75 1565.1C2832.12 1562.99 2831.8 1560.76 2831.8 1559.25ZM2824.05 1443.3C2803.78 1442.96 2787.85 1451.07 2782.9 1467.83C2778.08 1484.14 2775.45 1501.32 2773.94 1518.3C2772.78 1531.28 2779.3 1539.73 2792.06 1540.35C2805.32 1540.99 2818.9 1537.79 2832.1 1535.11C2834.79 1534.57 2837.64 1529.09 2838.35 1525.47C2841.94 1507.14 2845.02 1488.7 2847.94 1470.23C2851.68 1446.61 2848.99 1443.71 2824.05 1443.3Z" fill="#ECECEC"/>
<path fill-rule="evenodd" clip-rule="evenodd" d="M130.557 1515.14C106.467 1515.14 83.6007 1514.88 60.7535 1515.43C57.6241 1515.51 53.4674 1518.91 51.7235 1521.9C46.3581 1531.1 41.9196 1540.85 37.1419 1550.4C27.3284 1570 27.3331 1570.01 3 1566.02C6.78398 1558.23 10.2335 1550.79 13.9602 1543.51C41.5517 1489.56 69.2054 1435.63 96.8351 1381.7C102.009 1371.59 117.537 1365.7 127.394 1370.97C130.021 1372.38 131.813 1376.98 132.372 1380.38C142.061 1439.05 151.507 1497.77 160.972 1556.49C161.717 1561.11 164.469 1567.75 156.127 1567.17C149.438 1566.7 139.118 1572.98 137.274 1559.44C135.31 1545.1 132.955 1530.83 130.557 1515.14ZM113.82 1401.18C112.874 1400.9 111.933 1400.62 110.987 1400.34C95.9226 1431.16 80.8631 1461.98 65.5552 1493.3C87.0742 1493.3 106.696 1493.3 127.26 1493.3C122.688 1461.97 118.254 1431.58 113.82 1401.18Z" fill="#ECECEC"/>
<path fill-rule="evenodd" clip-rule="evenodd" d="M554.081 1430.34C556.995 1413.46 559.671 1397.39 562.566 1381.37C564.363 1371.41 574.984 1365.93 583.555 1370.99C585.471 1372.12 586.508 1376.85 586.035 1379.59C577.091 1431.09 567.96 1482.55 558.644 1533.98C553.316 1563.37 553.168 1563.61 523.264 1567.88C512.744 1569.38 501.946 1570.02 491.335 1569.56C463.853 1568.39 445.936 1550.23 447.58 1522.75C448.736 1503.5 451.894 1483.85 457.671 1465.49C468.731 1430.3 505.329 1414.36 542.423 1426.39C545.968 1427.54 549.489 1428.78 554.081 1430.34ZM503.016 1550.05C509.395 1549.11 515.749 1547.98 522.151 1547.25C530.34 1546.32 534.459 1542.58 535.83 1533.8C539.752 1508.63 544.884 1483.65 549.059 1458.51C549.532 1455.69 547.884 1450.82 545.672 1449.49C516.475 1432.02 482.892 1447.54 476.777 1481.04C474.861 1491.51 473.227 1502.04 471.397 1512.54C466.849 1538.64 476.337 1549.77 503.016 1550.05Z" fill="#ECECEC"/>
<path fill-rule="evenodd" clip-rule="evenodd" d="M1317.66 1430.33C1320.87 1412.21 1324.24 1395.78 1326.56 1379.19C1328.39 1366.05 1338.06 1370.22 1345 1370.62C1354.2 1371.16 1349.74 1378.22 1348.92 1382.86C1339.04 1438.84 1328.89 1494.78 1319.23 1550.8C1317.99 1557.97 1315.01 1562.19 1308.09 1563.06C1289.66 1565.4 1271.13 1569.53 1252.74 1569.09C1227.15 1568.48 1209.94 1550.51 1211.36 1525.13C1212.56 1503.66 1216.07 1481.6 1223.08 1461.36C1234.3 1428.98 1270.75 1414.97 1305.97 1426.36C1309.52 1427.51 1313.04 1428.76 1317.66 1430.33ZM1266.63 1550.05C1273.01 1549.11 1279.37 1547.98 1285.77 1547.25C1293.96 1546.32 1298.08 1542.58 1299.44 1533.8C1303.36 1508.62 1308.5 1483.65 1312.68 1458.51C1313.14 1455.69 1311.5 1450.82 1309.28 1449.49C1280.08 1432.02 1246.5 1447.53 1240.39 1481.04C1238.47 1491.52 1236.83 1502.04 1235.01 1512.54C1230.46 1538.64 1239.95 1549.77 1266.63 1550.05Z" fill="#ECECEC"/>
<path fill-rule="evenodd" clip-rule="evenodd" d="M2652.22 1430.3C2655.39 1412.51 2658.26 1395.63 2661.47 1378.82C2662.88 1371.41 2677.81 1366.32 2683.01 1371.63C2684.61 1373.27 2684.71 1377.25 2684.23 1379.94C2674.19 1436.67 2663.83 1493.34 2653.98 1550.09C2652.68 1557.6 2649.8 1562.26 2642.3 1563.21C2624.24 1565.49 2606.11 1569.51 2588.07 1569.19C2561.62 1568.7 2544.27 1550.05 2545.84 1523.56C2547.03 1503.57 2550.34 1483.13 2556.55 1464.15C2567.87 1429.6 2604.22 1414.46 2640.96 1426.52C2644.48 1427.68 2648 1428.88 2652.22 1430.3ZM2604.69 1549.45C2607.07 1549.17 2612.34 1548.39 2617.64 1547.94C2628.13 1547.04 2633.16 1541.99 2634.73 1530.99C2638.16 1506.9 2643.21 1483.05 2647.16 1459.04C2647.65 1456.09 2646.46 1451.15 2644.33 1449.76C2617.31 1432.18 2581.98 1446.87 2575.42 1478.27C2573.09 1489.44 2571.64 1500.78 2569.7 1512.03C2565.07 1538.88 2574.53 1549.96 2604.69 1549.45Z" fill="#ECECEC"/>
<path fill-rule="evenodd" clip-rule="evenodd" d="M618.137 1505.95C607.186 1534.87 618.07 1551.56 647.2 1548.97C659.551 1547.88 671.839 1541.86 683.277 1536.27C690.08 1532.95 692.636 1534.71 696.053 1539.89C699.45 1545.05 700.84 1549.15 694.571 1553.31C672.135 1568.2 647.869 1574.14 621.577 1567.13C600.497 1561.52 589.274 1546.31 591.515 1524.61C593.579 1504.57 596.599 1484.31 602.155 1465.01C613.068 1427.06 665.494 1409.57 698.599 1431.66C711.332 1440.16 715.608 1452.64 715.054 1467.29C713.654 1504.58 712.249 1505.96 676.048 1505.96C656.612 1505.95 637.176 1505.95 618.137 1505.95ZM621.615 1486.38C644.271 1486.38 666.903 1486.38 689.45 1486.38C690.52 1481.47 691.643 1477.42 692.254 1473.28C694.81 1455.93 686.607 1445.55 668.982 1443.62C640.975 1440.55 622.81 1456.84 621.615 1486.38Z" fill="#ECECEC"/>
<path fill-rule="evenodd" clip-rule="evenodd" d="M1381.77 1505.95C1370.76 1534.78 1381.66 1551.54 1410.78 1548.97C1423.13 1547.88 1435.42 1541.87 1446.87 1536.29C1453.65 1532.99 1456.23 1534.65 1459.65 1539.87C1463.02 1545.02 1464.5 1549.12 1458.21 1553.3C1435.78 1568.19 1411.52 1574.13 1385.22 1567.14C1364.13 1561.53 1352.9 1546.32 1355.13 1524.63C1357.19 1504.59 1360.21 1484.34 1365.76 1465.03C1376.76 1426.76 1430.66 1409.22 1463.15 1432.26C1475.61 1441.09 1479.47 1453.83 1478.63 1468.4C1476.51 1505.71 1476.22 1505.95 1439.69 1505.95C1420.25 1505.95 1400.82 1505.95 1381.77 1505.95ZM1385.04 1486.59C1407.99 1486.59 1430.35 1486.59 1452.96 1486.59C1454.04 1481.61 1455.3 1477.23 1455.92 1472.75C1458.24 1455.92 1450.24 1445.78 1433.21 1443.66C1405.59 1440.23 1387.43 1456.01 1385.04 1486.59Z" fill="#ECECEC"/>
<path fill-rule="evenodd" clip-rule="evenodd" d="M1916.04 1505.96C1903.43 1505.96 1890.8 1505.55 1878.23 1506.27C1875.28 1506.44 1870.82 1509.94 1869.97 1512.78C1863.21 1535.51 1873.99 1550.82 1897.56 1548.94C1911.04 1547.87 1924.46 1542.01 1937.17 1536.55C1943.48 1533.85 1946.4 1533.67 1950.11 1539.42C1953.74 1545.03 1955.24 1549.22 1948.44 1553.65C1926.25 1568.11 1902.35 1574 1876.45 1567.26C1854.81 1561.62 1843.54 1546.32 1845.85 1524C1847.89 1504.33 1850.95 1484.5 1856.28 1465.51C1867.06 1427.08 1920.42 1409.22 1953.44 1431.97C1965.6 1440.35 1969.82 1452.48 1969.4 1466.72C1968.29 1504.25 1966.59 1505.94 1929.79 1505.94C1925.21 1505.95 1920.63 1505.95 1916.04 1505.96ZM1943.71 1486.77C1944.83 1481.33 1946.18 1476.57 1946.76 1471.72C1948.58 1456.33 1941.47 1446.81 1926.33 1443.92C1897.92 1438.49 1876.06 1457 1876.26 1486.78C1898.3 1486.77 1920.35 1486.77 1943.71 1486.77Z" fill="#ECECEC"/>
<path fill-rule="evenodd" clip-rule="evenodd" d="M3315.01 1505.96C3302.4 1505.96 3289.77 1505.55 3277.2 1506.26C3274.21 1506.43 3269.69 1509.82 3268.84 1512.63C3261.93 1535.3 3272.72 1550.79 3296.21 1548.95C3309.7 1547.89 3323.11 1542.02 3335.86 1536.65C3341.99 1534.07 3345.07 1533.32 3348.84 1539.3C3352.32 1544.81 3354.3 1549.05 3347.38 1553.57C3325.22 1568.07 3301.34 1573.99 3275.43 1567.3C3253.72 1561.69 3242.34 1546.43 3244.68 1524.17C3246.78 1504.14 3249.79 1483.87 3255.47 1464.6C3266.64 1426.72 3319.37 1409.53 3352.11 1431.89C3364.32 1440.22 3368.6 1452.32 3368.22 1466.57C3367.2 1504.09 3365.34 1505.95 3328.77 1505.95C3324.18 1505.95 3319.59 1505.95 3315.01 1505.96ZM3342.43 1486.68C3343.51 1481.88 3344.78 1477.52 3345.43 1473.07C3347.88 1456.17 3339.99 1445.92 3323.07 1443.69C3294.92 1439.98 3275.53 1457.1 3274.86 1486.68C3297.25 1486.68 3319.63 1486.68 3342.43 1486.68Z" fill="#ECECEC"/>
<path fill-rule="evenodd" clip-rule="evenodd" d="M3124.05 1483.94C3125.14 1479.08 3126.38 1474.74 3127.05 1470.31C3129.39 1454.57 3122.26 1444 3106.45 1444.1C3093.06 1444.19 3079.46 1447.25 3066.42 1450.76C3059.46 1452.64 3055.71 1453.72 3052.11 1446C3048.35 1437.94 3051.99 1435.04 3058.32 1432.18C3078.01 1423.29 3098.47 1419.88 3119.58 1424.98C3141.8 1430.35 3153.46 1447.89 3149.91 1470.43C3145.7 1497.15 3140.88 1523.77 3135.81 1550.35C3135.07 1554.25 3132.28 1559.79 3129.14 1560.89C3106.99 1568.68 3084.12 1573.16 3060.72 1567.92C3040.3 1563.34 3028.68 1550.7 3027.33 1533.71C3025.76 1513.9 3035.53 1496.94 3053.89 1488.48C3071.88 1480.21 3090.9 1480.56 3110.04 1482.54C3114.5 1482.99 3118.96 1483.43 3124.05 1483.94ZM3120.8 1504.4C3101.55 1501.53 3083.48 1498.01 3065.74 1505.74C3054.83 1510.49 3048.83 1521.04 3050.45 1531.32C3052.03 1541.37 3059.97 1548.63 3072.72 1548.9C3084.45 1549.16 3096.24 1547.49 3107.94 1546.05C3110.23 1545.77 3113.61 1542.99 3114.08 1540.84C3116.68 1529.05 3118.54 1517.08 3120.8 1504.4Z" fill="#ECECEC"/>
<path fill-rule="evenodd" clip-rule="evenodd" d="M1727.8 1483.95C1728.84 1478.5 1730.22 1473.41 1730.75 1468.22C1732.19 1454.14 1725.41 1444.12 1711.28 1444.24C1697.14 1444.36 1682.8 1447.48 1669.03 1451.12C1662.07 1452.97 1658.93 1452.9 1655.72 1446.15C1652.47 1439.29 1654.07 1435.72 1660.58 1432.71C1680.55 1423.45 1701.34 1419.8 1722.88 1424.92C1745.17 1430.22 1756.94 1447.71 1753.42 1470.21C1749.17 1497.31 1744.19 1524.29 1739.08 1551.25C1738.4 1554.81 1735.73 1559.84 1732.83 1560.83C1709.89 1568.72 1686.35 1573.41 1662.16 1567.43C1645.79 1563.38 1633.57 1553.7 1631.23 1536.13C1628.78 1517.75 1634.9 1502.19 1651.24 1491.94C1669.76 1480.34 1690.3 1480.48 1711.05 1482.28C1716.3 1482.75 1721.53 1483.33 1727.8 1483.95ZM1724.25 1504.64C1705.08 1501.27 1687.02 1498.12 1669.28 1505.73C1658.26 1510.45 1652.32 1520.91 1653.91 1531.27C1655.46 1541.33 1663.4 1548.62 1676.14 1548.9C1687.87 1549.17 1699.68 1547.58 1711.35 1546.02C1713.78 1545.7 1717.14 1542.3 1717.72 1539.77C1720.33 1528.36 1722.09 1516.75 1724.25 1504.64Z" fill="#ECECEC"/>
<path fill-rule="evenodd" clip-rule="evenodd" d="M1101.55 1484C1102.65 1479.03 1103.75 1475.02 1104.41 1470.95C1107.02 1454.61 1099.81 1443.81 1083.42 1444.08C1069.67 1444.3 1055.76 1447.74 1042.37 1451.37C1035.77 1453.17 1032.67 1452.79 1029.94 1446.53C1027.54 1441.02 1026.27 1436.86 1033.15 1433.48C1053.34 1423.55 1074.46 1419.82 1096.4 1424.82C1119.24 1430.02 1130.99 1447.9 1127.31 1470.9C1123.08 1497.24 1118.09 1523.44 1113.73 1549.76C1112.53 1556.96 1109.45 1561.19 1101.98 1563.03C1080.39 1568.38 1058.78 1573.14 1036.58 1567.57C1019.75 1563.34 1007.26 1553.58 1005.11 1535.46C1002.92 1517.05 1009.34 1501.69 1025.8 1491.57C1042.59 1481.24 1061.19 1480.72 1080.02 1481.8C1086.8 1482.2 1093.57 1483.17 1101.55 1484ZM1098.31 1504.42C1079.61 1501.64 1062.01 1498.16 1044.52 1505.2C1032.79 1509.92 1026.33 1520.31 1027.86 1531.04C1029.34 1541.47 1037.61 1548.75 1051.04 1548.99C1062.39 1549.19 1073.82 1547.64 1085.1 1546.1C1087.6 1545.75 1091.08 1542.48 1091.65 1540C1094.29 1528.56 1096.05 1516.93 1098.31 1504.42Z" fill="#ECECEC"/>
<path fill-rule="evenodd" clip-rule="evenodd" d="M400.05 1483.97C401.101 1478.57 402.477 1473.48 403.017 1468.31C404.489 1454.21 397.738 1444.15 383.629 1444.25C369.496 1444.36 355.153 1447.49 341.374 1451.09C334.509 1452.89 331.241 1453.08 328.025 1446.23C324.839 1439.44 326.21 1435.8 332.779 1432.75C352.75 1423.47 373.538 1419.82 395.072 1424.91C417.388 1430.18 429.209 1447.66 425.702 1470.14C421.478 1497.24 416.481 1524.23 411.373 1551.18C410.695 1554.76 408.067 1559.82 405.181 1560.82C382.248 1568.72 358.703 1573.41 334.518 1567.46C318.145 1563.43 305.9 1553.79 303.52 1536.23C301.031 1517.85 307.175 1502.35 323.439 1491.98C340.08 1481.38 358.708 1480.76 377.547 1481.74C384.709 1482.12 391.832 1483.13 400.05 1483.97ZM396.534 1504.65C377.389 1501.26 359.329 1498.12 341.585 1505.71C330.615 1510.41 324.619 1520.94 326.186 1531.24C327.715 1541.3 335.641 1548.61 348.383 1548.9C360.103 1549.17 371.919 1547.58 383.586 1546.03C386.027 1545.71 389.41 1542.33 389.983 1539.8C392.601 1528.38 394.36 1516.77 396.534 1504.65Z" fill="#ECECEC"/>
<path fill-rule="evenodd" clip-rule="evenodd" d="M2269.94 1569.96C2230.03 1570.08 2209.78 1545.83 2216.14 1511.45C2218.23 1500.2 2220.28 1488.95 2222.25 1477.68C2229.33 1437.42 2269.35 1413.19 2308.55 1425.45C2326.54 1431.07 2340.37 1446.59 2338.77 1465.34C2336.84 1487.94 2333.78 1511.18 2326.24 1532.38C2316.62 1559.41 2292.83 1569.39 2269.94 1569.96ZM2266.28 1549.49C2284.87 1549.68 2300.77 1541.39 2305.31 1525.47C2310.48 1507.28 2313.7 1488.34 2315.68 1469.52C2317.19 1455.14 2306.93 1445.32 2292.4 1443.64C2269.31 1440.96 2250.69 1453.65 2245.74 1476.2C2242.72 1489.94 2240.38 1503.87 2238.46 1517.82C2235.77 1537.42 2246.48 1549.28 2266.28 1549.49Z" fill="#ECECEC"/>
<path fill-rule="evenodd" clip-rule="evenodd" d="M1981.99 1566.27C1985.8 1544.86 1989.41 1524.29 1993.13 1503.75C1996.81 1483.47 2000.29 1463.15 2004.58 1443.01C2005.47 1438.82 2008.71 1433.27 2012.28 1431.83C2032.04 1423.84 2052.89 1420.55 2074.03 1423.83C2102.26 1428.21 2116.38 1449.95 2111.37 1480.53C2107.17 1506.13 2102.27 1531.61 2097.54 1557.13C2095.86 1566.2 2083 1572.05 2075.89 1566.57C2074.05 1565.15 2073.76 1560.43 2074.26 1557.49C2078.64 1531.91 2083.29 1506.39 2088.01 1480.88C2092.86 1454.63 2082.37 1442.44 2055.48 1443.35C2053.57 1443.42 2051.66 1443.53 2049.76 1443.67C2028.4 1445.3 2026.54 1447.04 2022.79 1467.61C2017.72 1495.38 2012.63 1523.16 2007.35 1550.9C2003.91 1569.01 2003.75 1568.99 1981.99 1566.27Z" fill="#ECECEC"/>
<path fill-rule="evenodd" clip-rule="evenodd" d="M2424.41 1420.73C2436.78 1424.07 2449.33 1426.88 2461.43 1431.02C2465.84 1432.52 2474.29 1434.31 2469.59 1442.57C2465.98 1448.88 2462.9 1455.02 2451.91 1450.72C2439.94 1446.04 2426.24 1445.03 2413.18 1444.13C2407.65 1443.75 2401.15 1446.73 2396.27 1449.96C2384.87 1457.52 2385.32 1470.86 2397.08 1477.91C2402.54 1481.18 2408.97 1482.84 2415.02 1485.07C2423.59 1488.22 2432.68 1490.29 2440.71 1494.44C2468.15 1508.61 2469.74 1540.87 2444.29 1558.48C2420.63 1574.84 2377.45 1573.47 2354.41 1555.97C2348.61 1551.56 2347.74 1547.73 2352.29 1541.82C2356.39 1536.5 2359.58 1534 2366.13 1538.95C2380.03 1549.46 2396.48 1551.56 2412.99 1548.75C2420.35 1547.5 2428.3 1543.39 2433.66 1538.19C2442.77 1529.37 2439.94 1517.55 2428.42 1512.12C2422.27 1509.23 2415.33 1508.05 2409.02 1505.43C2399.24 1501.34 2388.82 1497.94 2380.22 1492C2360.23 1478.21 2360.23 1450.29 2379.55 1435.4C2392.54 1425.39 2407.85 1422.77 2424.41 1420.73Z" fill="#ECECEC"/>
<path fill-rule="evenodd" clip-rule="evenodd" d="M3429 1571.07C3411.4 1570.28 3395.63 1565.65 3381.39 1555.65C3375.94 1551.81 3374.86 1547.89 3379.26 1542.41C3383.04 1537.68 3385.84 1533.14 3392.89 1538.56C3406.35 1548.92 3422.24 1551.16 3438.53 1549.04C3445.06 1548.19 3452.15 1545.82 3457.37 1541.96C3470.69 1532.11 3468.56 1516.98 3453.3 1510.87C3441.65 1506.2 3429.2 1503.46 3417.79 1498.35C3404.06 1492.19 3393.04 1482.82 3392.71 1465.92C3392.38 1449.27 3400.16 1437 3415.02 1430.37C3440.47 1419.01 3466.13 1419.88 3491.23 1432.13C3495.53 1434.23 3501.49 1436.52 3496.71 1442.96C3493.02 1447.94 3490.9 1456.27 3481.06 1451.01C3465.68 1442.77 3449.25 1440.93 3432.3 1445.63C3423.13 1448.18 3416.15 1453.45 3415.63 1463.57C3415.1 1473.75 3422.73 1478.28 3430.86 1481.26C3439.79 1484.52 3449.14 1486.62 3458.11 1489.8C3478.73 1497.11 3490.11 1510.42 3489.67 1526.05C3489.16 1544.21 3477.32 1558.94 3456.77 1565.4C3447.8 1568.21 3438.28 1569.23 3429 1571.07Z" fill="#ECECEC"/>
<path fill-rule="evenodd" clip-rule="evenodd" d="M235.088 1569.77C199.117 1569.74 180.393 1547.08 186.914 1511.5C189.389 1498 191.448 1484.42 194.344 1471.02C205.113 1421.13 263.22 1411.99 295.656 1434.08C297.949 1435.64 299.789 1441.76 298.57 1443.81C295.857 1448.38 293.821 1455.26 284.853 1451.72C275.145 1447.87 264.72 1444.15 254.472 1443.73C235.595 1442.94 221.777 1454.44 217.382 1472.96C213.87 1487.77 210.941 1502.79 208.987 1517.87C206.36 1538.17 217.463 1550.64 237.893 1549.11C248.538 1548.31 259.335 1544.43 269.201 1540.01C276.578 1536.71 279.316 1538.95 282.613 1544.78C286.134 1551.01 285.967 1555.95 278.8 1558.47C264.634 1563.46 250.286 1567.93 236.015 1572.61C235.709 1571.67 235.399 1570.72 235.088 1569.77Z" fill="#ECECEC"/>
<path fill-rule="evenodd" clip-rule="evenodd" d="M2993.62 1445.93C2988.7 1473.62 2983.71 1499.81 2979.48 1526.12C2977.01 1541.53 2983.91 1548.94 2999.54 1549.53C3005.11 1549.73 3011.74 1548.34 3010.87 1557.8C3010.18 1565.48 3008.37 1570.49 2998.68 1570.3C2966.75 1569.67 2951.87 1552.28 2957.43 1520.61C2964.28 1481.54 2971.36 1442.51 2978.37 1403.47C2981.06 1388.48 2982.05 1387.88 2999.65 1391.5C2998.78 1402.13 2997.9 1412.97 2996.86 1425.68C3004.77 1425.68 3012.29 1425.04 3019.63 1425.96C3023.06 1426.4 3028.76 1429.74 3028.85 1431.94C3029.08 1437.87 3029.64 1445.86 3019.77 1445.92C3011.41 1445.97 3003.05 1445.93 2993.62 1445.93Z" fill="#ECECEC"/>
<path fill-rule="evenodd" clip-rule="evenodd" d="M2174.94 1445.94C2170.02 1473.84 2164.89 1500.38 2160.77 1527.08C2158.5 1541.84 2165.56 1548.93 2180.7 1549.54C2186.12 1549.76 2193.06 1548 2192.23 1557.59C2191.57 1565.12 2190.1 1570.46 2180.25 1570.3C2148.31 1569.81 2133.2 1552.35 2138.74 1520.81C2145.6 1481.74 2152.67 1442.72 2159.69 1403.68C2162.42 1388.45 2163.1 1388.05 2180.67 1391.34C2180.4 1396.64 2180.2 1402.17 2179.81 1407.7C2179.42 1413.28 2178.84 1418.84 2178.23 1425.69C2186.5 1425.69 2193.67 1425.61 2200.82 1425.71C2205.7 1425.79 2211.65 1424.76 2210.58 1432.87C2209.74 1439.24 2209.94 1446.4 2200.16 1446.01C2192.18 1445.69 2184.19 1445.94 2174.94 1445.94Z" fill="#ECECEC"/>
<path fill-rule="evenodd" clip-rule="evenodd" d="M1600.88 1391.77C1599.99 1402.46 1599.1 1413.34 1598.08 1425.7C1606.39 1425.7 1614 1425.02 1621.39 1426C1624.65 1426.44 1629.85 1430.09 1630 1432.53C1630.34 1438.11 1630.6 1445.66 1621.53 1445.88C1612.83 1446.08 1604.12 1445.93 1594.75 1445.93C1589.85 1473.9 1584.62 1500.78 1580.59 1527.85C1578.47 1542.07 1585.64 1548.91 1600.17 1549.58C1605.4 1549.82 1612.6 1547.53 1612.09 1557.21C1611.66 1565.41 1609.6 1570.63 1599.32 1570.3C1567.82 1569.3 1553.08 1552.15 1558.51 1521.18C1565.37 1482.12 1572.43 1443.09 1579.46 1404.06C1582.27 1388.39 1583.91 1387.43 1600.88 1391.77Z" fill="#ECECEC"/>
<path fill-rule="evenodd" clip-rule="evenodd" d="M1829.02 1549.13C1824.28 1557.83 1822.52 1566.5 1817.66 1568.9C1806.33 1574.48 1788.4 1568.06 1781.66 1558.31C1773.99 1547.19 1773.61 1534.54 1775.76 1521.97C1783.82 1474.66 1792.25 1427.42 1800.64 1380.16C1802.18 1371.51 1816.3 1365.7 1822.44 1371.48C1824.19 1373.14 1824.03 1377.72 1823.51 1380.75C1815.56 1426.93 1807.39 1473.07 1799.33 1519.23C1798.68 1522.97 1798.08 1526.77 1798.07 1530.56C1798 1544.42 1802.64 1548.96 1816.61 1549.13C1819.2 1549.16 1821.78 1549.13 1829.02 1549.13Z" fill="#ECECEC"/>
<path fill-rule="evenodd" clip-rule="evenodd" d="M3227.18 1549.13C3223.15 1557.39 3221.79 1566.06 3217.03 1568.75C3206.25 1574.86 3185.34 1568.75 3180.66 1557.67C3176.28 1547.28 3173.1 1534.62 3174.73 1523.76C3181.94 1475.56 3191.31 1427.69 3199.36 1379.61C3201.47 1367.03 3210.31 1370.19 3217.62 1370.48C3227.07 1370.86 3222.89 1377.79 3222.09 1382.41C3214.16 1428.2 3206.04 1473.97 3198.03 1519.74C3197.43 1523.11 3196.92 1526.54 3196.87 1529.95C3196.65 1544.26 3201.46 1549.01 3215.96 1549.13C3218.2 1549.15 3220.45 1549.13 3227.18 1549.13Z" fill="#ECECEC"/>
<path fill-rule="evenodd" clip-rule="evenodd" d="M964.724 1569.65C953.171 1569.12 950.2 1565.39 951.953 1556.01C959.512 1515.56 966.678 1475.03 974.098 1434.54C975.551 1426.63 988.88 1421.2 995.158 1426.23C996.902 1427.63 997.552 1431.75 997.093 1434.35C989.678 1476.38 982.187 1518.4 974.05 1560.29C973.353 1563.88 967.944 1566.56 964.724 1569.65Z" fill="#ECECEC"/>
<path fill-rule="evenodd" clip-rule="evenodd" d="M2698.41 1567.27C2689.74 1568.79 2686.06 1566.01 2687.76 1556.82C2695.34 1515.98 2702.58 1475.09 2710.06 1434.23C2711.46 1426.56 2725.5 1421.24 2731.28 1426.41C2732.98 1427.94 2733.43 1432.01 2732.96 1434.65C2725.59 1476.3 2718.18 1517.94 2710.08 1559.45C2709.32 1563.33 2703.87 1566.3 2700.61 1569.7C2699.87 1568.89 2699.14 1568.07 2698.41 1567.27Z" fill="#ECECEC"/>
<path fill-rule="evenodd" clip-rule="evenodd" d="M2938.18 1426.87C2934.7 1446.87 2931.42 1466.3 2927.93 1485.69C2923.61 1509.7 2918.39 1533.57 2914.99 1557.69C2913.15 1570.71 2904.57 1567.66 2897.28 1567.26C2887.11 1566.7 2891.78 1558.82 2892.56 1554.2C2898.95 1516.65 2905.82 1479.16 2912.47 1441.64C2915.63 1423.82 2916.34 1423.29 2938.18 1426.87Z" fill="#ECECEC"/>
</svg>
