<svg width="1256" height="1256" viewBox="0 0 1256 1256" fill="none" xmlns="http://www.w3.org/2000/svg">
<path d="M358.857 1256C160.666 1256 -7.02293e-06 1095.33 -1.56861e-05 897.143L-3.92154e-05 358.857C-4.78786e-05 160.666 160.666 0.000115047 358.857 0.000106384L1256 6.71688e-05L1256 897.143C1256 1095.33 1095.33 1256 897.143 1256L358.857 1256Z" fill="#ECECEC"/>
<path d="M447.135 345.873L458.489 389.714C435.36 398.124 418.328 411.687 407.394 430.4C396.67 449.114 389.731 470.036 386.577 493.165L377.746 558.138C374.592 584.842 366.287 606.5 352.829 623.111C339.372 639.512 322.13 651.707 301.104 659.698C280.287 667.477 257.368 671.683 232.346 672.314L235.815 628.473C257.473 627.842 274.084 621.113 285.649 608.287C297.424 595.461 304.888 578.744 308.042 558.138L316.874 493.165C320.238 467.092 327.387 444.383 338.321 425.039C349.465 405.694 364.079 389.503 382.162 376.467C400.455 363.22 422.113 353.022 447.135 345.873ZM375.223 921.481L359.138 964.691C336.429 957.121 317.82 946.293 303.311 932.205C288.803 918.327 278.5 901.716 272.402 882.371C266.515 863.027 264.832 841.579 267.356 818.029L276.187 753.372C277.659 740.546 277.343 729.086 275.241 718.993C273.138 708.9 268.407 700.805 261.048 694.707C253.898 688.399 243.385 684.719 229.507 683.668L232.977 639.827C255.896 640.668 276.187 645.504 293.849 654.336C311.512 662.957 325.074 675.573 334.536 692.184C343.998 708.795 347.573 729.296 345.26 753.687L336.744 818.345C335.062 832.012 334.536 845.574 335.167 859.031C335.798 872.699 339.057 885 344.944 895.933C351.042 906.867 361.135 915.383 375.223 921.481ZM575.819 850.2H470.79L486.244 765.042L579.288 765.673C605.571 765.673 627.229 759.154 644.261 746.118C661.503 733.081 674.855 716.154 684.317 695.338C693.989 674.521 700.507 652.548 703.872 629.419L706.079 609.864C707.972 595.986 708.813 581.478 708.603 566.339C708.392 550.989 706.185 536.691 701.979 523.444C697.774 510.197 690.625 499.263 680.532 490.642C670.649 482.021 656.772 477.395 638.899 476.765L533.87 476.449L548.694 390.975L642.368 391.291C673.067 391.921 699.982 398.23 723.111 410.215C746.241 421.99 765.27 438.075 780.199 458.471C795.128 478.657 805.641 501.786 811.739 527.86C817.837 553.933 819.204 581.373 815.839 610.179L813.631 630.05C809.636 660.749 801.015 689.556 787.768 716.47C774.522 743.174 757.49 766.619 736.673 786.804C715.857 806.78 691.781 822.445 664.446 833.799C637.322 844.943 607.779 850.41 575.819 850.2ZM612.721 390.975L532.924 850.2H425.056L504.538 390.975H612.721ZM880.181 389.398L896.897 346.819C919.396 354.178 937.795 364.902 952.093 378.99C966.601 393.078 976.904 409.794 983.002 429.139C989.1 448.484 990.782 469.826 988.049 493.165L979.533 558.454C977.851 571.28 978.061 582.74 980.164 592.832C982.266 602.715 986.892 610.705 994.041 616.803C1001.4 622.901 1012.02 626.475 1025.9 627.527L1022.74 669.475C1000.24 668.634 980.058 664.008 962.186 655.597C944.313 647.187 930.645 634.886 921.183 618.695C911.721 602.505 908.147 582.319 910.46 558.138L918.976 492.85C920.658 479.183 921.078 465.62 920.237 452.163C919.606 438.496 916.242 426.195 910.144 415.261C904.257 404.117 894.269 395.496 880.181 389.398ZM808.27 965.637L796.915 921.481C812.265 915.804 824.881 907.814 834.763 897.51C844.646 887.207 852.216 875.222 857.472 861.555C862.939 847.887 866.829 833.379 869.142 818.029L877.658 753.687C881.022 726.773 889.433 705.221 902.89 689.03C916.347 672.839 933.484 660.959 954.301 653.39C975.117 645.82 998.036 641.72 1023.06 641.089L1019.59 682.722C997.931 683.563 981.32 690.397 969.755 703.223C958.191 716.049 950.726 732.871 947.362 753.687L938.531 818.029C935.166 844.313 928.017 867.127 917.083 886.471C906.149 905.816 891.536 922.007 873.242 935.043C855.159 948.29 833.502 958.488 808.27 965.637Z" fill="#073B3A"/>
</svg>
