<svg width="1256" height="1256" viewBox="0 0 1256 1256" fill="none" xmlns="http://www.w3.org/2000/svg">
<path d="M358.857 1256C160.666 1256 -7.02293e-06 1095.33 -1.56861e-05 897.143L-3.92154e-05 358.857C-4.78786e-05 160.666 160.666 0.000117908 358.857 0.000109245L1256 7.00298e-05L1256 897.143C1256 1095.33 1095.33 1256 897.143 1256L358.857 1256Z" fill="#E2A30B"/>
<path d="M412.686 1202.17C214.495 1202.17 53.8286 1041.51 53.8286 843.314L53.8286 412.686C53.8286 214.495 214.494 53.8287 412.686 53.8287L1202.17 53.8287L1202.17 843.314C1202.17 1041.51 1041.51 1202.17 843.314 1202.17L412.686 1202.17Z" fill="#073B3A"/>
<path d="M447.135 342.284L458.489 386.125C435.36 394.535 418.328 408.098 407.394 426.812C396.67 445.525 389.731 466.447 386.577 489.577L377.746 554.549C374.592 581.253 366.287 602.911 352.829 619.522C339.372 635.923 322.13 648.118 301.103 656.109C280.287 663.889 257.368 668.094 232.346 668.725L235.815 624.884C257.473 624.253 274.084 617.525 285.649 604.698C297.424 591.872 304.888 575.156 308.042 554.549L316.874 489.577C320.238 463.503 327.387 440.794 338.321 421.45C349.465 402.105 364.079 385.914 382.162 372.878C400.455 359.631 422.113 349.433 447.135 342.284ZM375.223 917.892L359.137 961.102C336.428 953.533 317.82 942.704 303.311 928.616C288.803 914.738 278.5 898.127 272.402 878.782C266.514 859.438 264.832 837.99 267.355 814.44L276.187 749.783C277.659 736.957 277.343 725.497 275.241 715.404C273.138 705.311 268.407 697.216 261.047 691.118C253.898 684.81 243.385 681.131 229.507 680.079L232.977 636.238C255.896 637.079 276.187 641.916 293.849 650.747C311.512 659.368 325.074 671.984 334.536 688.595C343.998 705.206 347.573 725.707 345.26 750.098L336.744 814.756C335.062 828.423 334.536 841.985 335.167 855.443C335.798 869.11 339.057 881.411 344.944 892.345C351.042 903.279 361.135 911.794 375.223 917.892ZM575.818 846.611H470.79L486.244 761.453L579.288 762.084C605.571 762.084 627.229 755.565 644.261 742.529C661.503 729.492 674.855 712.566 684.317 691.749C693.989 670.933 700.507 648.96 703.872 625.83L706.079 606.275C707.972 592.398 708.813 577.889 708.603 562.75C708.392 547.4 706.184 533.102 701.979 519.855C697.774 506.608 690.625 495.674 680.532 487.053C670.649 478.432 656.772 473.806 638.899 473.176L533.87 472.86L548.694 387.386L642.368 387.702C673.067 388.333 699.982 394.641 723.111 406.626C746.241 418.401 765.27 434.486 780.199 454.882C795.128 475.068 805.641 498.198 811.739 524.271C817.837 550.344 819.203 577.784 815.839 606.591L813.631 626.461C809.636 657.16 801.015 685.967 787.768 712.881C774.522 739.585 757.49 763.03 736.673 783.216C715.857 803.191 691.781 818.856 664.446 830.21C637.322 841.355 607.779 846.822 575.818 846.611ZM612.72 387.386L532.924 846.611H425.056L504.538 387.386H612.72ZM880.181 385.809L896.897 343.23C919.396 350.589 937.794 361.313 952.093 375.401C966.601 389.489 976.904 406.205 983.002 425.55C989.1 444.895 990.782 466.237 988.048 489.577L979.533 554.865C977.85 567.691 978.061 579.151 980.163 589.243C982.266 599.126 986.892 607.116 994.041 613.214C1001.4 619.312 1012.02 622.886 1025.9 623.938L1022.74 665.886C1000.24 665.045 980.058 660.419 962.186 652.008C944.313 643.598 930.645 631.297 921.183 615.106C911.721 598.916 908.147 578.73 910.46 554.549L918.975 489.261C920.658 475.594 921.078 462.031 920.237 448.574C919.606 434.907 916.242 422.606 910.144 411.672C904.257 400.528 894.269 391.907 880.181 385.809ZM808.269 962.048L796.915 917.892C812.265 912.215 824.881 904.225 834.763 893.922C844.646 883.618 852.215 871.633 857.472 857.966C862.939 844.298 866.829 829.79 869.142 814.44L877.658 750.098C881.022 723.184 889.433 701.632 902.89 685.441C916.347 669.25 933.484 657.37 954.3 649.801C975.117 642.231 998.036 638.131 1023.06 637.5L1019.59 679.133C997.931 679.974 981.32 686.808 969.755 699.634C958.19 712.46 950.726 729.282 947.362 750.098L938.53 814.44C935.166 840.724 928.017 863.538 917.083 882.883C906.149 902.227 891.536 918.418 873.242 931.454C855.159 944.701 833.502 954.899 808.269 962.048Z" fill="#ECECEC"/>
</svg>
