<?xml version="1.0" standalone="no"?>
<!DOCTYPE svg PUBLIC "-//W3C//DTD SVG 1.0//EN" "http://www.w3.org/TR/2001/REC-SVG-20010904/DTD/svg10.dtd">
<svg xmlns="http://www.w3.org/2000/svg" xmlns:xlink="http://www.w3.org/1999/xlink" id="body_1" width="50" height="50">

<g transform="matrix(0.05636979 0 0 0.05636979 0.05636979 -0)">
    <path d="M439.109 0.152684C 437.67 0.412514 436.249 0.764821 434.856 1.20742C 427.175 2.92907 420.328 7.26101 415.482 13.4651C 410.637 19.6691 408.093 27.3614 408.283 35.231L408.283 35.231L408.283 69.2546L102.071 69.2546C 75 69.2546 49.0379 80.0085 29.8959 99.1505C 10.7539 118.292 0 144.255 0 171.325L0 171.325L0 613.632C 0 669.975 45.7278 715.703 102.071 715.703L102.071 715.703L408.283 715.703L408.283 728.462L223.263 820.972C 215.088 824.92 208.815 831.954 205.826 840.526C 202.837 849.099 203.375 858.508 207.323 866.683C 211.271 874.858 218.305 881.131 226.877 884.12C 235.449 887.109 244.858 886.571 253.034 882.623L253.034 882.623L408.283 805.015L408.283 817.774C 408.283 826.798 411.868 835.452 418.249 841.832C 424.629 848.213 433.283 851.798 442.307 851.798C 451.331 851.798 459.985 848.213 466.365 841.832C 472.746 835.452 476.331 826.798 476.331 817.774L476.331 817.774L476.331 805.015L631.581 882.623C 639.756 886.571 649.165 887.109 657.737 884.12C 666.31 881.131 673.343 874.858 677.291 866.683C 681.239 858.508 681.778 849.099 678.788 840.526C 675.799 831.954 669.527 824.92 661.351 820.972L661.351 820.972L476.331 728.462L476.331 715.703L782.543 715.703C 838.886 715.703 884.614 669.975 884.614 613.632L884.614 613.632L884.614 171.325C 884.614 144.255 873.86 118.292 854.718 99.1505C 835.576 80.0085 809.614 69.2546 782.543 69.2546L782.543 69.2546L476.331 69.2546L476.331 35.231C 476.503 30.3928 475.64 25.5736 473.8 21.0954C 471.961 16.6173 469.187 12.5833 465.663 9.26291C 462.14 5.94256 457.949 3.41233 453.37 1.84129C 448.79 0.270243 443.928 -0.305446 439.109 0.152684zM68.0472 171.325L816.567 171.325L816.567 613.632L68.0472 613.632L68.0472 171.325zM710.243 205.349C 702.622 206.168 695.501 209.537 690.033 214.91L690.033 214.91L578.402 326.575L500.794 248.899C 497.077 245.086 492.517 242.198 487.481 240.468C 482.444 238.738 477.072 238.214 471.797 238.939C 466.521 239.664 461.489 241.617 457.106 244.641C 452.723 247.665 449.111 251.676 446.56 256.35L446.56 256.35L345.544 432.865L304.069 328.651C 302.055 323.27 298.711 318.487 294.349 314.747C 289.988 311.007 284.75 308.433 279.124 307.265C 273.499 306.096 267.669 306.371 262.179 308.064C 256.689 309.757 251.716 312.813 247.726 316.946L247.726 316.946L145.655 419.017C 142.438 422.232 139.886 426.049 138.144 430.25C 136.402 434.451 135.505 438.954 135.503 443.502C 135.502 448.05 136.396 452.554 138.135 456.756C 139.874 460.959 142.423 464.777 145.638 467.994C 148.853 471.211 152.67 473.764 156.871 475.505C 161.072 477.247 165.575 478.145 170.123 478.146C 174.671 478.148 179.175 477.254 183.377 475.515C 187.579 473.776 191.398 471.226 194.615 468.011L194.615 468.011L259.464 403.162L308.39 524.354C 310.699 530.433 314.702 535.722 319.923 539.596C 325.145 543.47 331.368 545.767 337.854 546.214C 344.341 546.662 350.82 545.241 356.524 542.121C 362.228 539 366.919 534.311 370.041 528.607L370.041 528.607L483.816 329.773L553.973 399.964C 557.145 403.246 560.947 405.857 565.149 407.639C 569.352 409.422 573.87 410.341 578.436 410.341C 583.001 410.341 587.519 409.422 591.722 407.639C 595.925 405.857 599.726 403.246 602.899 399.964L602.899 399.964L738.993 263.87C 744.368 258.894 747.993 252.317 749.331 245.116C 750.668 237.914 749.646 230.474 746.417 223.9C 743.187 217.326 737.922 211.97 731.405 208.628C 724.888 205.286 717.466 204.136 710.243 205.349z" stroke="none" fill="#FFFEFE" fill-rule="nonzero" />
</g>
</svg>