<svg width="500" height="501" viewBox="0 0 500 501" fill="none" xmlns="http://www.w3.org/2000/svg">
<path d="M248.192 0.0862996C247.379 0.23316 246.576 0.432291 245.788 0.682453C241.447 1.65556 237.577 4.10406 234.838 7.6107C232.1 11.1173 230.662 15.4651 230.769 19.9132V39.144H57.6923C42.3914 39.144 27.7171 45.2223 16.8977 56.0417C6.07828 66.8611 0 81.5353 0 96.8363L0 346.836C0 378.682 25.8462 404.528 57.6923 404.528H230.769V411.74L126.192 464.028C121.571 466.26 118.026 470.235 116.337 475.081C114.647 479.926 114.951 485.244 117.183 489.865C119.414 494.486 123.39 498.031 128.235 499.721C133.08 501.41 138.398 501.106 143.019 498.875L230.769 455.009V462.221C230.769 467.321 232.795 472.212 236.402 475.819C240.008 479.425 244.9 481.451 250 481.451C255.1 481.451 259.992 479.425 263.598 475.819C267.205 472.212 269.231 467.321 269.231 462.221V455.009L356.981 498.875C361.602 501.106 366.92 501.41 371.765 499.721C376.61 498.031 380.586 494.486 382.817 489.865C385.049 485.244 385.353 479.926 383.663 475.081C381.974 470.235 378.429 466.26 373.808 464.028L269.231 411.74V404.528H442.308C474.154 404.528 500 378.682 500 346.836V96.8363C500 81.5353 493.922 66.8611 483.102 56.0417C472.283 45.2223 457.609 39.144 442.308 39.144H269.231V19.9132C269.328 17.1786 268.84 14.4547 267.801 11.9235C266.761 9.39239 265.193 7.11229 263.201 5.23556C261.21 3.35884 258.841 1.92871 256.253 1.04073C253.664 0.152746 250.916 -0.172644 248.192 0.0862996ZM38.4615 96.8363H461.538V346.836H38.4615V96.8363ZM401.442 116.067C397.135 116.53 393.11 118.434 390.019 121.471L326.923 184.586L283.058 140.682C280.957 138.527 278.38 136.894 275.533 135.917C272.686 134.939 269.65 134.643 266.668 135.053C263.686 135.462 260.842 136.566 258.365 138.275C255.887 139.985 253.845 142.252 252.404 144.894L195.308 244.663L171.865 185.759C170.727 182.718 168.837 180.014 166.372 177.901C163.906 175.787 160.946 174.332 157.766 173.672C154.587 173.011 151.292 173.167 148.188 174.124C145.085 175.08 142.275 176.808 140.019 179.144L82.3269 236.836C80.5086 238.653 79.066 240.811 78.0815 243.185C77.0969 245.56 76.5897 248.105 76.5888 250.676C76.588 253.246 77.0934 255.792 78.0763 258.167C79.0592 260.542 80.5003 262.701 82.3173 264.519C84.1344 266.337 86.2917 267.78 88.6663 268.764C91.0409 269.749 93.5861 270.256 96.1567 270.257C98.7272 270.258 101.273 269.752 103.648 268.77C106.023 267.787 108.182 266.346 110 264.528L146.654 227.875L174.308 296.375C175.613 299.81 177.875 302.8 180.827 304.989C183.778 307.179 187.295 308.477 190.961 308.73C194.628 308.983 198.29 308.18 201.514 306.416C204.738 304.653 207.389 302.002 209.154 298.778L273.462 186.394L313.115 226.067C314.909 227.922 317.057 229.398 319.433 230.405C321.808 231.413 324.362 231.932 326.942 231.932C329.523 231.932 332.077 231.413 334.452 230.405C336.828 229.398 338.976 227.922 340.769 226.067L417.692 149.144C420.73 146.332 422.779 142.614 423.535 138.544C424.291 134.474 423.714 130.268 421.888 126.552C420.063 122.837 417.087 119.809 413.403 117.92C409.72 116.031 405.525 115.381 401.442 116.067Z" fill="#FFFEFE"/>
</svg>
