<?xml version="1.0" standalone="no"?>
<!DOCTYPE svg PUBLIC "-//W3C//DTD SVG 1.0//EN" "http://www.w3.org/TR/2001/REC-SVG-20010904/DTD/svg10.dtd">
<svg xmlns="http://www.w3.org/2000/svg" xmlns:xlink="http://www.w3.org/1999/xlink" id="body_1" width="50" height="58">

<g transform="matrix(0.042459738 0 0 0.042459738 0.16105364 -0)">
    <path d="M1170 828.766L974.998 984.766L974.998 877.516C 974.973 851.665 964.692 826.881 946.413 808.602C 928.134 790.323 903.349 780.042 877.498 780.016L877.498 780.016L487.498 780.016C 461.648 780.042 436.863 790.323 418.584 808.602C 400.305 826.881 390.024 851.665 389.998 877.516L389.998 877.516L389.998 1170.02C 390.024 1195.87 400.305 1220.65 418.584 1238.93C 436.863 1257.21 461.648 1267.49 487.498 1267.52L487.498 1267.52L877.498 1267.52C 903.349 1267.49 928.134 1257.21 946.413 1238.93C 964.692 1220.65 974.973 1195.87 974.998 1170.02L974.998 1170.02L974.998 1062.77L1170 1218.77L1170 828.766zM487.498 1170.02L487.498 877.516L877.498 877.516L877.596 1170.02L487.498 1170.02z" stroke="none" fill="#EDEDED" fill-rule="nonzero" />
    <path d="M292.5 1267.52L97.5 1267.52L97.5 97.5166L487.5 97.5166L487.5 390.017C 487.577 415.851 497.874 440.606 516.142 458.874C 534.41 477.142 559.165 487.439 585 487.517L585 487.517L877.5 487.517L877.5 633.767L975 633.767L975 390.017C 975.172 383.61 973.954 377.242 971.429 371.351C 968.904 365.46 965.133 360.186 960.375 355.892L960.375 355.892L619.125 14.6416C 614.833 9.88087 609.559 6.10791 603.668 3.58298C 597.776 1.05806 591.407 -0.158722 585 0.016577L585 0.016577L97.5 0.016577C 71.6651 0.0937349 46.9104 10.3908 28.6423 28.6589C 10.3742 46.927 0.0771579 71.6817 0 97.5166L0 97.5166L0 1267.52C 0.0771579 1293.35 10.3742 1318.11 28.6423 1336.37C 46.9104 1354.64 71.6651 1364.94 97.5 1365.02L97.5 1365.02L292.5 1365.02L292.5 1267.52zM585 117.017L858 390.017L585 390.017L585 117.017z" stroke="none" fill="#073B3A" fill-rule="nonzero" />
</g>
</svg>