<svg width="1170" height="1366" viewBox="0 0 1170 1366" fill="none" xmlns="http://www.w3.org/2000/svg">
<path d="M1170 828.766L974.998 984.766V877.516C974.973 851.665 964.692 826.881 946.413 808.602C928.134 790.323 903.349 780.042 877.498 780.016H487.498C461.648 780.042 436.863 790.323 418.584 808.602C400.305 826.881 390.024 851.665 389.998 877.516V1170.02C390.024 1195.87 400.305 1220.65 418.584 1238.93C436.863 1257.21 461.648 1267.49 487.498 1267.52H877.498C903.349 1267.49 928.134 1257.21 946.413 1238.93C964.692 1220.65 974.973 1195.87 974.998 1170.02V1062.77L1170 1218.77V828.766ZM487.498 1170.02V877.516H877.498L877.596 1170.02H487.498Z" fill="#EDEDED"/>
<path d="M292.5 1267.52H97.5V97.5166H487.5V390.017C487.577 415.851 497.874 440.606 516.142 458.874C534.41 477.142 559.165 487.439 585 487.517H877.5V633.767H975V390.017C975.172 383.61 973.954 377.242 971.429 371.351C968.904 365.46 965.133 360.186 960.375 355.892L619.125 14.6416C614.833 9.88087 609.559 6.10791 603.668 3.58298C597.776 1.05806 591.407 -0.158722 585 0.016577H97.5C71.6651 0.0937349 46.9104 10.3908 28.6423 28.6589C10.3742 46.927 0.0771579 71.6817 0 97.5166V1267.52C0.0771579 1293.35 10.3742 1318.11 28.6423 1336.37C46.9104 1354.64 71.6651 1364.94 97.5 1365.02H292.5V1267.52ZM585 117.017L858 390.017H585V117.017Z" fill="#073B3A"/>
</svg>
