<?xml version="1.0" standalone="no"?>
<!DOCTYPE svg PUBLIC "-//W3C//DTD SVG 1.0//EN" "http://www.w3.org/TR/2001/REC-SVG-20010904/DTD/svg10.dtd">
<svg xmlns="http://www.w3.org/2000/svg" xmlns:xlink="http://www.w3.org/1999/xlink" id="body_1" width="50" height="58">

<g transform="matrix(0.04707792 0 0 0.04707792 0.14285724 -0)">
    <path d="M1055.66 997.014L1055.66 1055.66L0 1055.66L0 997.014L117.296 879.718L117.296 527.831C 117.296 346.022 236.351 185.914 410.535 134.304L410.535 134.304L410.535 117.296C 410.535 86.187 422.893 56.3523 444.89 34.3551C 466.887 12.3579 496.722 0 527.831 0C 558.94 0 588.774 12.3579 610.771 34.3551C 632.769 56.3523 645.127 86.187 645.127 117.296L645.127 117.296L645.127 134.304C 819.311 185.914 938.366 346.022 938.366 527.831L938.366 527.831L938.366 879.718L1055.66 997.014zM645.127 1114.31C 645.127 1145.42 632.769 1175.25 610.771 1197.25C 588.774 1219.25 558.94 1231.61 527.831 1231.61C 496.722 1231.61 466.887 1219.25 444.89 1197.25C 422.893 1175.25 410.535 1145.42 410.535 1114.31" stroke="none" fill="#073B3A" fill-rule="nonzero" />
</g>
</svg>