<svg width="430" height="502" viewBox="0 0 430 502" fill="none" xmlns="http://www.w3.org/2000/svg">
<path d="M430 406.111V430H0V406.111L47.7778 358.333V215C47.7778 140.944 96.2722 75.7278 167.222 54.7056V47.7778C167.222 35.1063 172.256 22.9539 181.216 13.9938C190.176 5.03371 202.329 0 215 0C227.671 0 239.824 5.03371 248.784 13.9938C257.744 22.9539 262.778 35.1063 262.778 47.7778V54.7056C333.728 75.7278 382.222 140.944 382.222 215V358.333L430 406.111ZM262.778 453.889C262.778 466.56 257.744 478.713 248.784 487.673C239.824 496.633 227.671 501.667 215 501.667C202.329 501.667 190.176 496.633 181.216 487.673C172.256 478.713 167.222 466.56 167.222 453.889" fill="#073B3A"/>
</svg>
