<svg width="1056" height="1232" viewBox="0 0 1056 1232" fill="none" xmlns="http://www.w3.org/2000/svg">
<path d="M1055.66 997.014V1055.66H0V997.014L117.296 879.718V527.831C117.296 346.022 236.351 185.914 410.535 134.304V117.296C410.535 86.187 422.893 56.3523 444.89 34.3551C466.887 12.3579 496.722 0 527.831 0C558.94 0 588.774 12.3579 610.771 34.3551C632.769 56.3523 645.127 86.187 645.127 117.296V134.304C819.311 185.914 938.366 346.022 938.366 527.831V879.718L1055.66 997.014ZM645.127 1114.31C645.127 1145.42 632.769 1175.25 610.771 1197.25C588.774 1219.25 558.94 1231.61 527.831 1231.61C496.722 1231.61 466.887 1219.25 444.89 1197.25C422.893 1175.25 410.535 1145.42 410.535 1114.31" fill="white"/>
</svg>
