<?xml version="1.0" standalone="no"?>
<!DOCTYPE svg PUBLIC "-//W3C//DTD SVG 1.0//EN" "http://www.w3.org/TR/2001/REC-SVG-20010904/DTD/svg10.dtd">
<svg xmlns="http://www.w3.org/2000/svg" xmlns:xlink="http://www.w3.org/1999/xlink" id="body_1" width="50" height="49">

<g transform="matrix(0.09939148 0 0 0.09939148 0.10243377 -0)">
    <path d="M0.609375 150.614C 0.609375 67.4856 67.9978 0.0966797 151.126 0.0966797L151.126 0.0966797L350.093 0.0966797C 433.221 0.0966797 500.609 67.4856 500.609 150.614L500.609 150.614L500.609 342.109C 500.609 425.237 433.221 492.626 350.093 492.626L350.093 492.626L151.126 492.626C 67.9978 492.626 0.609375 425.237 0.609375 342.109L0.609375 342.109L0.609375 150.614z" stroke="none" fill="#E2A30B" fill-rule="nonzero" />
    <path d="M346.228 267.298C 350.952 267.298 355.483 269.175 358.824 272.515C 362.165 275.856 364.041 280.387 364.041 285.111L364.041 285.111L364.041 332.614C 364.041 340.489 360.913 348.04 355.346 353.608C 349.778 359.176 342.226 362.304 334.352 362.304L334.352 362.304L168.093 362.304C 160.219 362.304 152.667 359.176 147.099 353.608C 141.532 348.04 138.404 340.489 138.404 332.614L138.404 332.614L138.404 285.111C 138.404 280.387 140.28 275.856 143.621 272.515C 146.962 269.175 151.493 267.298 156.217 267.298C 160.942 267.298 165.473 269.175 168.813 272.515C 172.154 275.856 174.031 280.387 174.031 285.111L174.031 285.111L174.031 326.677L328.414 326.677L328.414 285.111C 328.414 280.387 330.291 275.856 333.632 272.515C 336.973 269.175 341.503 267.298 346.228 267.298zM265.913 132.152L314.199 180.45C 315.901 182.094 317.258 184.059 318.191 186.233C 319.125 188.406 319.616 190.744 319.637 193.109C 319.657 195.474 319.207 197.82 318.311 200.009C 317.415 202.198 316.093 204.187 314.42 205.86C 312.747 207.532 310.759 208.855 308.569 209.751C 306.38 210.646 304.034 211.097 301.669 211.077C 299.304 211.056 296.966 210.565 294.793 209.631C 292.62 208.697 290.654 207.34 289.011 205.639L289.011 205.639L269.036 185.664L269.036 285.111C 269.036 289.836 267.159 294.367 263.819 297.708C 260.478 301.048 255.947 302.925 251.223 302.925C 246.498 302.925 241.967 301.048 238.626 297.708C 235.286 294.367 233.409 289.836 233.409 285.111L233.409 285.111L233.409 185.664L213.434 205.639C 211.791 207.34 209.825 208.697 207.652 209.631C 205.479 210.565 203.141 211.056 200.776 211.077C 198.411 211.097 196.065 210.646 193.876 209.751C 191.687 208.855 189.698 207.532 188.025 205.86C 186.353 204.187 185.03 202.198 184.134 200.009C 183.238 197.82 182.788 195.474 182.808 193.109C 182.829 190.744 183.32 188.406 184.254 186.233C 185.187 184.059 186.545 182.094 188.246 180.45L188.246 180.45L236.532 132.164C 240.429 128.269 245.713 126.082 251.223 126.082C 256.732 126.082 262.016 128.257 265.913 132.152z" stroke="none" fill="#073B3A" fill-rule="nonzero" />
</g>
</svg>