<svg width="501" height="493" viewBox="0 0 501 493" fill="none" xmlns="http://www.w3.org/2000/svg">
<path d="M0.609375 150.614C0.609375 67.4856 67.9978 0.0966797 151.126 0.0966797H350.093C433.221 0.0966797 500.609 67.4856 500.609 150.614V342.109C500.609 425.237 433.221 492.626 350.093 492.626H151.126C67.9978 492.626 0.609375 425.237 0.609375 342.109V150.614Z" fill="#E2A30B"/>
<path d="M346.228 267.298C350.952 267.298 355.483 269.175 358.824 272.515C362.165 275.856 364.041 280.387 364.041 285.111V332.614C364.041 340.489 360.913 348.04 355.346 353.608C349.778 359.176 342.226 362.304 334.352 362.304H168.093C160.219 362.304 152.667 359.176 147.099 353.608C141.532 348.04 138.404 340.489 138.404 332.614V285.111C138.404 280.387 140.28 275.856 143.621 272.515C146.962 269.175 151.493 267.298 156.217 267.298C160.942 267.298 165.473 269.175 168.813 272.515C172.154 275.856 174.031 280.387 174.031 285.111V326.677H328.414V285.111C328.414 280.387 330.291 275.856 333.632 272.515C336.973 269.175 341.503 267.298 346.228 267.298ZM265.913 132.152L314.199 180.45C315.901 182.094 317.258 184.059 318.191 186.233C319.125 188.406 319.616 190.744 319.637 193.109C319.657 195.474 319.207 197.82 318.311 200.009C317.415 202.198 316.093 204.187 314.42 205.86C312.747 207.532 310.759 208.855 308.569 209.751C306.38 210.646 304.034 211.097 301.669 211.077C299.304 211.056 296.966 210.565 294.793 209.631C292.62 208.697 290.654 207.34 289.011 205.639L269.036 185.664V285.111C269.036 289.836 267.159 294.367 263.819 297.708C260.478 301.048 255.947 302.925 251.223 302.925C246.498 302.925 241.967 301.048 238.626 297.708C235.286 294.367 233.409 289.836 233.409 285.111V185.664L213.434 205.639C211.791 207.34 209.825 208.697 207.652 209.631C205.479 210.565 203.141 211.056 200.776 211.077C198.411 211.097 196.065 210.646 193.876 209.751C191.687 208.855 189.698 207.532 188.025 205.86C186.353 204.187 185.03 202.198 184.134 200.009C183.238 197.82 182.788 195.474 182.808 193.109C182.829 190.744 183.32 188.406 184.254 186.233C185.187 184.059 186.545 182.094 188.246 180.45L236.532 132.164C240.429 128.269 245.713 126.082 251.223 126.082C256.732 126.082 262.016 128.257 265.913 132.152Z" fill="#073B3A"/>
</svg>
