<svg width="478" height="500" viewBox="0 0 478 500" fill="none" xmlns="http://www.w3.org/2000/svg">
<path d="M439.895 298.905C449.895 298.905 459.485 302.878 466.556 309.949C473.627 317.02 477.6 326.611 477.6 336.611V437.158C477.6 453.825 470.979 469.809 459.194 481.594C447.409 493.379 431.425 500 414.758 500H62.8421C46.1753 500 30.1912 493.379 18.406 481.594C6.62084 469.809 0 453.825 0 437.158V336.611C0 326.611 3.97251 317.02 11.0436 309.949C18.1147 302.878 27.7052 298.905 37.7053 298.905C47.7053 298.905 57.2958 302.878 64.3669 309.949C71.438 317.02 75.4105 326.611 75.4105 336.611V424.589H402.189V336.611C402.189 326.611 406.162 317.02 413.233 309.949C420.304 302.878 429.895 298.905 439.895 298.905ZM269.894 12.8481L372.101 115.08C375.702 118.558 378.574 122.718 380.55 127.319C382.526 131.919 383.567 136.866 383.61 141.873C383.654 146.879 382.7 151.844 380.804 156.478C378.908 161.112 376.108 165.322 372.568 168.862C369.028 172.402 364.818 175.202 360.184 177.098C355.55 178.994 350.585 179.948 345.579 179.904C340.572 179.861 335.624 178.821 331.024 176.845C326.424 174.869 322.264 171.996 318.785 168.395L276.505 126.115V336.611C276.505 346.611 272.533 356.201 265.462 363.272C258.39 370.343 248.8 374.316 238.8 374.316C228.8 374.316 219.209 370.343 212.138 363.272C205.067 356.201 201.095 346.611 201.095 336.611V126.115L158.815 168.395C155.336 171.996 151.176 174.869 146.576 176.845C141.975 178.821 137.028 179.861 132.021 179.904C127.015 179.948 122.05 178.994 117.416 177.098C112.782 175.202 108.572 172.402 105.032 168.862C101.492 165.322 98.692 161.112 96.7961 156.478C94.9003 151.844 93.9462 146.879 93.9898 141.873C94.0333 136.866 95.0734 131.919 97.0495 127.319C99.0256 122.718 101.898 118.558 105.499 115.08L207.706 12.8732C215.954 4.63033 227.139 0 238.8 0C250.461 0 261.645 4.63033 269.894 12.8732V12.8481Z" fill="#073B3A"/>
</svg>
