<svg width="928" height="972" viewBox="0 0 928 972" fill="none" xmlns="http://www.w3.org/2000/svg">
<path d="M854.737 580.788C874.167 580.788 892.802 588.506 906.542 602.246C920.281 615.985 928 634.62 928 654.051V849.419C928 881.804 915.135 912.862 892.236 935.761C869.337 958.66 838.279 971.525 805.895 971.525H122.105C89.7209 971.525 58.663 958.66 35.7638 935.761C12.8646 912.862 0 881.804 0 849.419V654.051C0 634.62 7.71878 615.985 21.4583 602.246C35.1978 588.506 53.8326 580.788 73.2632 580.788C92.6938 580.788 111.329 588.506 125.068 602.246C138.808 615.985 146.526 634.62 146.526 654.051V824.998H781.474V654.051C781.474 634.62 789.193 615.985 802.932 602.246C816.672 588.506 835.306 580.788 854.737 580.788ZM524.418 24.9645L723.01 223.605C730.007 230.364 735.588 238.448 739.428 247.386C743.268 256.325 745.289 265.938 745.373 275.666C745.458 285.394 743.604 295.041 739.92 304.045C736.237 313.049 730.797 321.229 723.918 328.108C717.039 334.986 708.859 340.426 699.855 344.11C690.851 347.794 681.204 349.648 671.476 349.563C661.748 349.479 652.135 347.457 643.196 343.618C634.258 339.778 626.174 334.197 619.416 327.199L537.263 245.047V654.051C537.263 673.481 529.544 692.116 515.805 705.856C502.065 719.595 483.431 727.314 464 727.314C444.569 727.314 425.935 719.595 412.195 705.856C398.456 692.116 390.737 673.481 390.737 654.051V245.047L308.584 327.199C301.826 334.197 293.742 339.778 284.804 343.618C275.865 347.457 266.252 349.479 256.524 349.563C246.796 349.648 237.149 347.794 228.145 344.11C219.141 340.426 210.961 334.986 204.082 328.108C197.203 321.229 191.763 313.049 188.08 304.045C184.396 295.041 182.542 285.394 182.627 275.666C182.711 265.938 184.732 256.325 188.572 247.386C192.412 238.448 197.993 230.364 204.99 223.605L403.582 25.0133C419.61 8.99696 441.341 0 464 0C486.659 0 508.39 8.99696 524.418 25.0133V24.9645Z" fill="#073B3A"/>
</svg>
